<svg xmlns="http://www.w3.org/2000/svg" viewBox="0 0 506.89 301.19"><defs><style>.cls-1{fill:#fff;}.cls-2{fill:#241d1e;}</style></defs><title>Fichier 21</title><g id="Calque_2" data-name="Calque 2"><g id="Capa_1" data-name="Capa 1"><path class="cls-1" d="M347.43,196.27l22.33-14,20.63-19.09,16.3-24.93,4.69-33.37-3.92-27.47L390,47,366.42,22.85,329.79,6.36,299.11,3.78,265.16,9.62,246,20.36,222.78,38.58l-15.72,30.3-6.33,35.48,8.14,27.71s11.78,25.31,12.76,25.31,3.07,6.24,3.07,6.24L226,174l-3.43,14.31L210.19,199l-15.6,4-10.74,1.67-11.59-7.55-3.75-4.91-21.46,11.58.51,11.54L159,235.67l15.14,13.81,22.09,6.89L209.17,258l78.47-60.29Z"/><polygon class="cls-1" points="503.07 99.85 480.56 93.79 462.82 108.91 461.62 85.63 441.77 73.42 463.53 65.09 469.01 42.44 483.65 60.56 506.89 58.78 494.17 78.3 503.07 99.85"/><polygon class="cls-1" points="170.7 189.22 170.7 196.27 183.33 202.98 194 202.98 208.67 200.16 222.61 189.22 227.39 175.41 224.97 164.99 217.11 166.13 215.88 168.82 215 179.96 205.42 187.5 190.84 191.72 180.45 192.48 170.7 189.22"/><polygon class="cls-1" points="159 237.55 144.57 205.52 137.53 209.74 140.02 227.39 147.25 240.57 159 237.55"/><polygon class="cls-1" points="171.85 253.47 170.7 263.78 184.89 266.89 199.05 266.89 205.02 257.42 171.85 253.47"/><polygon class="cls-1" points="217.11 169.09 213.66 181.17 192.57 191.72 174.92 188.46 139.44 171.51 133.07 162.76 152.87 161.58 203.73 166.21 217.11 169.09"/><polygon class="cls-1" points="272.15 216.02 309.51 182.82 336.59 182.32 369.19 184.38 383.38 188.65 379.74 193.25 326.23 208.59 272.15 216.02"/><polygon class="cls-1" points="164.41 260.83 195.82 269 170.32 287.22 153.06 297.19 149.79 293.68 164.41 260.83"/><polygon class="cls-1" points="146.85 241.11 135.61 211.04 108.76 226.07 88.63 244.84 93.23 248.73 122.18 246.75 146.85 241.11"/><polygon class="cls-1" points="239.04 155.95 227.39 161.45 248.37 181.75 278.62 194.79 291 197.74 306.2 182.89 323.93 182.51 348.48 176.84 373.19 159.88 369.76 146.84 387.6 124.98 393.33 105.95 369.76 95.45 346.56 98.27 332.37 89.38 306.19 86.21 275.61 72.82 267.55 66.56 265.63 86.21 227.39 70.9 220.16 70.13 220.16 83.62 230.62 105.95 237.59 113.64 220.16 119.84 222.61 132.07 239.04 155.95"/><polygon class="cls-1" points="149.79 240.57 159 248.73 130.01 274.18 110.3 283 78.08 289.52 52.2 289.52 29.75 279.93 12.11 263.78 3.67 240.57 13.17 225.17 15.56 213.58 24.38 202.24 34.74 200.16 39.34 207.3 48.93 229.31 63.89 236.59 91.5 238.89 87.28 245.27 92.27 248.73 124.1 245.27 149.79 240.57"/><path class="cls-2" d="M295.28,23.46h4c.66,0,1.32,0,2.17,0l2.76.14,3.13.17,3.34.37c2.32.22,4.82.67,7.44,1.16s5.35,1.21,8.13,1.94,5.62,1.7,8.42,2.84c2.84,1,5.6,2.34,8.36,3.61s5.4,2.8,7.92,4.4,4.93,3.25,7.23,4.84c2.21,1.76,4.41,3.34,6.29,5.11l2.78,2.48L369.73,53c1.61,1.55,2.93,3.1,4.12,4.46a45.78,45.78,0,0,1,3,3.57l2.48,3.21-2.91-2.8c-.9-.9-2.06-1.94-3.44-3.07s-2.86-2.46-4.65-3.72l-2.72-2-3-2c-2-1.41-4.37-2.61-6.69-4-2.42-1.17-4.85-2.52-7.48-3.53-2.56-1.15-5.26-2.06-7.94-3S335,38.47,332.31,38s-5.38-1-8-1.41-5.11-.58-7.49-.64-4.63-.16-6.7,0l-3,.11-2.57.23-2.24.21c-.71.07-1.46.22-2.08.29l-4,.6a7,7,0,0,1-2.06-13.79A6.55,6.55,0,0,1,295.28,23.46Z"/><path class="cls-2" d="M311.16,202.85a117.69,117.69,0,0,1-30.07-3.94c-28.12-7.44-51.9-24.54-67-48.16S194.5,99.62,201.41,73.53C212.86,30.23,254.47,0,302.6,0a117.71,117.71,0,0,1,30.07,3.94c58.15,15.38,93.9,71.63,79.68,125.39C400.9,172.62,359.29,202.85,311.16,202.85ZM302.6,6.9c-45,0-83.87,28.12-94.51,68.39C201.68,99.5,205.9,125,220,147s36.46,38.2,62.9,45.2a110.83,110.83,0,0,0,28.31,3.71c45,0,83.86-28.12,94.51-68.39C418.92,77.49,385.37,25,330.9,10.61A110.72,110.72,0,0,0,302.6,6.9Z"/><path class="cls-2" d="M369.27,150.31a3.45,3.45,0,0,1-2.28-6c21-18.45,27.52-39.48,24-47-.09-.05-4.6-4.14-43.2,4.18a3.45,3.45,0,1,1-1.46-6.75c40.87-8.81,48.67-5.13,50.9-.36,5.19,11.07-3.17,35.27-25.7,55.09A3.45,3.45,0,0,1,369.27,150.31Z"/><path class="cls-2" d="M313.56,186.56q-2,0-4.06-.08a3.45,3.45,0,0,1,.29-6.9,87,87,0,0,0,60.65-21.3l-4.33-10a3.45,3.45,0,0,1,6.34-2.73l5.28,12.25a3.44,3.44,0,0,1-.66,3.73C376.08,162.54,353,186.56,313.56,186.56Z"/><path class="cls-2" d="M258.75,171.29a3.45,3.45,0,0,1-1.7-.45c-28.5-16.21-39.23-38.86-40.92-48.57-.5-2.9-.24-4.76.86-6a3.45,3.45,0,0,1,2-1.15c7-1.23,13.81-2.75,20.22-4.53a3.45,3.45,0,1,1,1.85,6.65c-5.79,1.61-11.89,3-18.15,4.19,1.29,7,10.74,28.23,37.53,43.47a3.45,3.45,0,0,1-1.71,6.45Z"/><path class="cls-2" d="M347.07,101.55A3.45,3.45,0,0,1,344,99.7c-1.76-2.43-18.47-12.38-41.71-8.15a79.63,79.63,0,0,0-18.81,5.7A3.45,3.45,0,0,1,280.64,91a86.57,86.57,0,0,1,20.42-6.2c25.87-4.71,46.42,6.3,49.11,11.83a3.45,3.45,0,0,1-1.6,4.61A3.41,3.41,0,0,1,347.07,101.55Z"/><path class="cls-2" d="M240.15,117.3a3.44,3.44,0,0,1-1.37-.28c-15.39-6.65-23.16-30.61-23-41.58.06-4.59,1.44-7.45,4.08-8.51,4.05-1.63,13,1.94,39.82,14.22,9,4.13,20.22,9.27,22.44,9.51A3.41,3.41,0,0,1,285.6,94a3.52,3.52,0,0,1-3.41,3.57c-2.77.08-8.84-2.54-25.39-10.13-10.94-5-28.8-13.2-33.94-13.93-.43,2-.22,7.34,2.15,14.66,3.65,11.22,9.83,19.64,16.52,22.54a3.45,3.45,0,0,1-1.37,6.62Z"/><path class="cls-2" d="M307.67,90.79c-5.15,0-15.74-5.73-30.08-13.8-3.65-2-7.67-4.32-9.86-5.39-.88,2.42-1,9,0,14.92a3.45,3.45,0,0,1-6.82,1.07c-.93-5.91-2.37-20,4.46-23.1,2.2-1,3.6-.29,15.62,6.48,7.47,4.2,23,12.91,26.61,12.91h.2a3.45,3.45,0,0,1,.12,6.9Z"/><ellipse class="cls-2" cx="306.88" cy="105.95" rx="8.8" ry="7.67" transform="translate(-8.5 28.9) rotate(-5.32)"/><path class="cls-2" d="M343.49,131.69a95.86,95.86,0,0,1,13.12-5.95c2.25-.81,4.5-1.61,6.79-2.32,1.14-.37,2.31-.67,3.47-1s2.43-.57,3.65-.85h0a2.14,2.14,0,0,1,2.57,1.6,2.17,2.17,0,0,1,.05.48,5.5,5.5,0,0,1-.48,2.36c-.22.53-.44,1-.68,1.49-.48.94-1,1.79-1.55,2.64A44.94,44.94,0,0,1,367,135a41.31,41.31,0,0,1-4.07,4.33,16.29,16.29,0,0,1-4.93,3.34,16.67,16.67,0,0,0,1.8-2.26c.53-.8,1.06-1.58,1.55-2.4,1-1.61,1.93-3.28,2.88-4.91s1.82-3.32,2.67-5c.42-.83.8-1.67,1.16-2.47.18-.4.33-.79.46-1.16s.16-.83.15-.45l2.67,2.07c-2.13.48-4.42,1.11-6.71,1.67-1.14.3-2.3.57-3.45.84s-2.31.57-3.47.82c-2.33.49-4.66,1-7,1.38A71.33,71.33,0,0,1,343.49,131.69Z"/><path class="cls-2" d="M369.76,95.45c0,3.74,9.64,20.85,21,21.72,2.14-3.08,4-20.14,2.45-21.72S369.76,95.45,369.76,95.45Z"/><path class="cls-2" d="M98.06,252.17c-9.91,0-12.58-2.54-13.5-5.56-1.4-4.59-4-13.13,88.11-61.19l3.19,6.12c-74.1,38.66-83.43,50.26-84.53,53,5.58,3.2,39.64-2.76,69-10.57l1.78,6.67c-.18,0-17.88,4.75-35.74,8.11C113.23,251.18,104.23,252.17,98.06,252.17Z"/><path class="cls-2" d="M215.3,171.51l-3.07-6.19c27.57-13.66,28-13.66,28.83-13.66l1.47,6.57C242.44,158.28,231.55,163.46,215.3,171.51Z"/><path class="cls-2" d="M205.61,260.84c-23.82,0-38.75-10.81-47.25-20.25-12.06-13.4-17-30.74-15.81-37.6l6.8,1.18c-.67,3.84,2.56,18.94,14.14,31.8,8.12,9,22.86,19.43,47.16,17.8l.46,6.89C209.23,260.77,207.39,260.84,205.61,260.84Z"/><path class="cls-2" d="M193.11,271.11a54.52,54.52,0,0,1-30.61-8.9l3.8-5.76c9,6,19.65,8.49,31.56,7.57l.54,6.88Q195.72,271.11,193.11,271.11Z"/><path class="cls-2" d="M143.92,242.64c-8.75-14.12-11.56-29.19-10.7-34.93l6.83,1c-.59,4,1.72,17.32,9.74,30.27Z"/><path class="cls-2" d="M152.47,301.19a4.54,4.54,0,0,1-1.86-.36,7,7,0,0,1-4-5.2c-2.61-12.37,19.91-46.88,23.5-50.82l5.1,4.65c-5.86,6.42-24.28,38.85-21.9,44.78,8-2,45.15-31.53,75.14-55.39,34.23-27.24,66.56-53,79.78-58.89l2.82,6.3c-12.43,5.57-45.92,32.22-78.31,58C178.78,287.19,160,301.19,152.47,301.19Z"/><path class="cls-2" d="M185.85,196.32c-4,0-48.16-18.92-55.82-27.89a6.51,6.51,0,0,1-1.87-5.25c.68-4.28,6-5.79,20.22-5.79a360.89,360.89,0,0,1,43.52,3.21c27.2,3.61,27.67,6.67,28,9.12a16.22,16.22,0,0,1-4,13.51C207.29,193.29,187.69,196.32,185.85,196.32ZM136.26,165c7.74,7,43.8,22.69,49.82,24.34,2.85-.32,18.69-3.38,24.84-10.94a9.41,9.41,0,0,0,2.31-6.58c-6.45-3-41.72-7.58-64.85-7.58A69,69,0,0,0,136.26,165Z"/><path class="cls-2" d="M191.11,207.3a31.64,31.64,0,0,1-12.61-2.57c-6.69-2.89-11.62-8-12.57-13l6.78-1.29c.44,2.32,3.51,5.8,8.53,8,4,1.71,14.57,4.77,27.79-3.65,11.64-7.41,14.14-15.72,14.6-20,.42-3.95-.64-6.34-1.08-6.77.07.07-.8-2-.35-1.93l2.12-4.58c2.78.4,5,3.13,5.87,7.3,1.82,8.4-1.67,21.77-17.45,31.83A40.47,40.47,0,0,1,191.11,207.3Z"/><path class="cls-2" d="M260.95,221a3.45,3.45,0,0,1-.24-6.89c43.88-3.14,110.91-16.33,117.38-24.61-3-1.05-13.16-3.1-47.56-4.57a3.45,3.45,0,0,1,.29-6.9c51.84,2.21,53.09,5.65,54.19,8.68a6.6,6.6,0,0,1-.79,6c-9.8,15.12-100.68,26.72-123,28.32Z"/><path class="cls-2" d="M231.81,231.17c-2.52,0-27-11.81-27.95-15.16-.44-1.58-.66-2.37,13-13.78,3-2.48,12.79-10.64,14.55-11.2a3.16,3.16,0,0,1,.83-.13c3.55,0,23.72,11.66,25.89,14a2.71,2.71,0,0,1,.81,2.09c-.25,3.26-23.45,24-27,24.15ZM209.28,215c4.76,3.07,19.17,10.7,22.37,11.49,3.21-1.57,18.07-14.73,22-19.34-4.18-3-17.72-10.4-21.13-11.55A300.81,300.81,0,0,0,209.28,215Z"/><path class="cls-2" d="M250.27,216a2.27,2.27,0,0,1-1.13-.3l-25.36-14.32a2.3,2.3,0,0,1,2.26-4l25.36,14.32a2.3,2.3,0,0,1-1.13,4.31Z"/><circle class="cls-2" cx="233.63" cy="198.97" r="1.22"/><circle class="cls-2" cx="237.22" cy="201.02" r="1.22"/><path class="cls-2" d="M68.39,293.68a122.31,122.31,0,0,1-13.32-.73C26.87,289.86,2.85,264.62.22,244.12c-1.25-9.78,2.77-17.2,11-20.35.46-.18.91-.33,1.37-.46L14.55,230c-.27.08-.55.17-.82.27-5.26,2-7.5,6.38-6.65,13,2,15.51,22,39.91,48.75,42.84,47.5,5.19,89.87-19.84,105.63-46l5.91,3.56C152,269.15,113.24,293.68,68.39,293.68Z"/><path class="cls-2" d="M19.78,243.9A3.44,3.44,0,0,1,17,242.54c-8.24-10.84-9.58-23.65-3.58-34.25,4.57-8.08,12.47-12.74,20.08-11.93,6.37.7,8.05,6.84,9.68,12.79,3.31,12.09,7.86,28.66,47.81,26.51a3.45,3.45,0,1,1,.37,6.89C45.87,244.94,40,223.69,36.56,211c-1.41-5.14-2.24-7.58-3.77-7.74-4.82-.53-10.16,2.88-13.32,8.46-4.6,8.13-3.45,18.1,3.07,26.67a3.45,3.45,0,0,1-2.75,5.54Z"/><polygon class="cls-2" points="309.64 184.36 277.65 215.95 265.63 215.95 309.64 184.36"/><path class="cls-2" d="M164.4,258.43c4.39,3.48,32.1,3.67,37.32,1.75s-30.35-11.45-30.35-11.45Z"/><path class="cls-2" d="M146.85,243.49c1.41,1.73,10.42,8.16,10.42,8.16l5.38-9.12-3.07-3.65Z"/><path class="cls-2" d="M275.61,90.46c.76-1.15,12-4.6,19.08-4.22s-13,7.09-13,7.09Z"/><path class="cls-2" d="M259.12,171.28c-8.1.43-25.69-9.35-25.22-12.72s7.17-2.51,7.17-2.51Z"/></g></g></svg>