<?xml version="1.0" standalone="no"?>
<!DOCTYPE svg PUBLIC "-//W3C//DTD SVG 1.1//EN" "http://www.w3.org/Graphics/SVG/1.1/DTD/svg11.dtd" >
<svg xmlns="http://www.w3.org/2000/svg">
<metadata>
Created by FontForge 20120731 at Fri Mar 10 10:18:27 2017
 By gcooper,,,
</metadata>
<defs>
<font id="icons-sigma" horiz-adv-x="512" >
  <font-face 
    font-family="icons-sigma"
    font-weight="500"
    font-stretch="normal"
    units-per-em="512"
    panose-1="2 0 6 9 0 0 0 0 0 0"
    ascent="448"
    descent="-64"
    bbox="-0.714286 -64 1057 448.878"
    underline-thickness="25"
    underline-position="-52"
    unicode-range="U+F101-F120"
  />
<missing-glyph 
d="M17 0v341h136v-341h-136zM34 17h102v307h-102v-307z" />
    <glyph glyph-name=".notdef" 
d="M17 0v341h136v-341h-136zM34 17h102v307h-102v-307z" />
    <glyph glyph-name=".null" horiz-adv-x="0" 
 />
    <glyph glyph-name="nonmarkingreturn" 
 />
    <glyph glyph-name="add" unicode="&#xf101;" 
d="M512 204v-24h-244v-244h-24v244h-244v24h244v244h24v-244h244z" />
    <glyph glyph-name="at" unicode="&#xf102;" 
d="M391.5 -1.5q47.5 23.5 71.5 57.5h49q-14 -28 -47.5 -57t-79.5 -46t-111 -17q-60 0 -111 15t-86.5 45.5t-53.5 70.5q-23 50 -23 109q0 64 27 123q33 72 93.5 110.5t147.5 38.5q67 0 120.5 -27t84.5 -81q26 -46 26 -100q0 -77 -55 -137q-50 -53 -108 -53q-19 0 -30.5 5.5
t-16.5 15.5q-4 7 -5 23q-18 -20 -39.5 -32t-43.5 -12q-24 0 -47 14t-37 42.5t-14 62.5q0 43 22 85.5t54.5 63.5t63.5 21q24 0 45.5 -12t36.5 -37l9 41h49l-39 -178q-9 -37 -9 -41q0 -8 6 -13t13 -5q15 0 38 16q31 22 49 57.5t18 73.5q0 45 -23 83.5t-69 61.5t-102 23
q-63 0 -115 -29t-81 -83.5t-29 -116.5q0 -65 29 -112.5t83.5 -70t120.5 -22.5q71 0 118.5 23.5zM300 169q10 27 10 54q0 37 -18.5 57t-44.5 20q-17 0 -32.5 -9t-30 -28t-23 -46.5t-8.5 -50.5q0 -36 17.5 -56.5t40.5 -20.5q15 0 32 9t32 26.5t25 44.5z" />
    <glyph glyph-name="bag" unicode="&#xf103;" 
d="M439 -64h-366q-4 0 -6 2.5t-2 5.5l17 367q1 7 8 7h332q7 0 8 -7l17 -367q0 -3 -2 -5.5t-6 -2.5zM81 -48h350l-17 351h-316zM340 272q-8 0 -8 7v77q0 32 -22.5 54t-53.5 22t-53.5 -22t-22.5 -54v-77q0 -7 -8 -7t-8 7v77q0 38 27 65t65 27t65 -27t27 -65v-77q0 -7 -8 -7z
" />
    <glyph glyph-name="cart" unicode="&#xf104;" 
d="M509 341.5q5 -6.5 2 -14.5l-68 -214q-4 -11 -16 -11h-241q-3 0 -6 1l-15 -42h262q6 0 10 -4t4 -10t-4 -10t-10 -4h-15q12 -14 12 -33q0 -20 -14.5 -34.5t-34.5 -14.5t-34.5 14.5t-14.5 34.5q0 19 12 33h-107q13 -14 13 -33q0 -20 -14.5 -34.5t-35 -14.5t-35 14.5
t-14.5 34.5q0 19 13 33h-13q-7 0 -11 6t-2 13l25 68q2 6 8 8l-85 246l-70 27q-6 3 -8.5 9t0 12.5t8.5 9t12 0.5l77 -30q7 -3 10 -10l15 -44h2h370q8 0 13 -6.5zM194 -22q9 0 15.5 6.5t6.5 15.5t-6.5 15.5t-15.5 6.5t-15.5 -6.5t-6.5 -15.5t6.5 -15.5t15.5 -6.5zM375 -22
q9 0 15.5 6.5t6.5 15.5t-6.5 15.5t-15.5 6.5t-15.5 -6.5t-6.5 -15.5t6.5 -15.5t15.5 -6.5zM461 278l12 37h-96v-37h84zM437 203l14 42h-74v-42h60zM269 203h76v42h-76v-42zM345 170h-76v-35h76v35zM159 245l15 -42h62v42h-77zM269 278h76v37h-76v-37zM236 315h-101l13 -37
h88v37zM186 170l12 -35h38v35h-50zM377 135h38l12 35h-50v-35z" />
    <glyph glyph-name="close" unicode="&#xf105;" 
d="M512 418l-226 -226l226 -226l-30 -29l-226 225l-226 -225l-30 29l226 226l-226 226l30 29l226 -225l226 225z" />
    <glyph glyph-name="contact" unicode="&#xf106;" 
d="M500 378q5 0 8.5 -3.5t3.5 -7.5v-350q0 -4 -3.5 -7.5t-8.5 -3.5h-488q-5 0 -8.5 3.5t-3.5 7.5v350q0 4 3.5 7.5t8.5 3.5h488zM489 57v298h-466v-298l144 144l17 -16l-156 -156h456l-156 156l17 16zM465 355h24v-9l-225 -225q-8 -8 -16 0l-225 225v9h24l209 -209z" />
    <glyph glyph-name="discount" unicode="&#xf107;" 
d="M57 92q8 0 8 -14t-8 -14t-8 14t8 14zM114 59q8 0 8 -14t-8 -14t-8 14t8 14zM85.5 147q35.5 0 60.5 -25t25 -60.5t-25 -60.5t-60.5 -25t-60.5 25t-25 60.5t25 60.5t60.5 25zM36 77q0 -11 6 -17t15 -6.5t15.5 6.5t6.5 19q0 10 -5.5 16.5t-15.5 6.5t-16 -7t-6 -18zM69 23
l41 73q1 2 -0.5 4t-4 2t-3.5 -2l-40 -72q-2 -2 -0.5 -4.5t4 -2.5t3.5 2zM114 21q9 0 15.5 6.5t6.5 18.5q0 10 -6 16.5t-16 6.5t-16 -7t-6 -17.5t6.5 -17t15.5 -6.5zM15 363q-4 0 -5.5 4t1.5 7l26 23q13 11 30 11h379q16 0 29 -11l27 -23q3 -3 1.5 -7t-5.5 -4h-483zM390 268
q22 16 42 0l31 -22v-193q0 -18 -13 -31t-31 -13h-247q15 24 15 52v3h210q9 0 15.5 6.5t6.5 15.5v72h-303q-15 5 -31 5q-17 0 -35 -7v86l37 27q21 16 42 0l21 -15q15 -11 34 -11.5t34 10.5l21 15q21 16 42 0l20 -14q15 -11 34 -11.5t35 10.5zM419 186v14q0 9 -6.5 15t-15.5 6
h-279q-9 0 -15 -6t-6 -15v-14h322zM509.5 347.5q3.5 -4.5 2.5 -9.5l-10 -53q-3 -12 -14 -16.5t-21 2.5l-22 17q-2 1 -7 4h-1q-31 16 -60 -5l-21 -15q-18 -13 -38 -2l-25 17q-3 2 -6 5h-1q-32 16 -61 -5l-20 -15q-21 -15 -42 0l-20 15q-16 11 -34.5 11t-34.5 -11l-22 -16
q-9 -7 -20 -3.5t-14 15.5l-15 54q-1 6 2.5 10.5t9.5 4.5h485q6 0 9.5 -4.5z" />
    <glyph glyph-name="domain-registration" unicode="&#xf108;" 
d="M176 253q4 0 6.5 -3t1.5 -7l-23 -67q-2 -5 -7 -5h-1v0q-6 0 -8 5l-15 44l-15 -44q-1 -5 -7 -5h-1v0q-6 0 -8 5l-23 67q-1 4 1.5 7t6.5 3h1q6 0 7 -5l15 -44l15 44q2 5 7 5h2q6 0 7 -5l15 -44l15 44q2 5 7 5h1zM287 253q4 0 6.5 -3t1.5 -7l-23 -67q-2 -5 -8 -5v0h-1
q-5 0 -7 5l-15 44l-15 -44q-2 -5 -7 -5h-1v0h-1q-5 0 -7 5l-23 67q-1 4 1.5 7t6.5 3h1q5 0 7 -5l15 -44l15 44q1 5 7 5h2q5 0 7 -5l15 -44l15 44q1 5 7 5h1zM398 253q4 0 6.5 -3t0.5 -7l-22 -67q-2 -5 -8 -5v0h-1q-6 0 -7 5l-15 44l-15 -44q-2 -5 -8 -5v0h-1q-6 0 -7 5
l-23 67q-1 4 1 7t7 3q6 0 8 -5l15 -44l14 44q2 5 8 5h1q6 0 8 -5l15 -44l14 44q2 5 8 5h1zM35 20h256q4 -19 14 -35h-276q-12 0 -20.5 8.5t-8.5 20.5v380q0 12 8.5 20.5t20.5 8.5h424q12 0 20.5 -8.5t8.5 -20.5v-236q-3 1 -5 1q-17 0 -30 -11v171h-412v-299zM415 374v-12
q0 -5 3.5 -8t7.5 -3h11q4 0 7 3t3 8v12q0 4 -3 7.5t-7 3.5h-11q-4 0 -7.5 -3.5t-3.5 -7.5zM366 374v-12q0 -5 3 -8t7 -3h11q4 0 7.5 3t3.5 8v12q0 4 -3.5 7.5t-7.5 3.5h-11q-4 0 -7 -3.5t-3 -7.5zM316 374v-12q0 -5 3 -8t8 -3h10q5 0 8 3t3 8v12q0 4 -3 7.5t-8 3.5h-10
q-5 0 -8 -3.5t-3 -7.5zM512 97q0 -9 -6 -15l-37 -37v-5q0 -33 -23 -56t-55.5 -23t-55.5 23t-23 55.5t23 55.5t55 23q26 0 46 -14l24 24q6 6 15 6t15 -6l16 -16q6 -6 6 -15zM489 92q6 6 0 12l-7 7q-3 3 -6.5 3t-5.5 -3l-63 -62l-22 22q-6 6 -12 0l-7 -7q-6 -6 0 -12l35 -35
q3 -2 6.5 -2t5.5 2z" />
    <glyph glyph-name="down" unicode="&#xf109;" 
d="M256 58l-256 256l12 12l244 -244l244 244l12 -12z" />
    <glyph glyph-name="download" unicode="&#xf10a;" 
d="M467 267l-211 -211l-211 211h121v181h180v-181h121zM45 -4h422v-60h-422v60z" />
    <glyph glyph-name="facebook" unicode="&#xf10b;" 
d="M384 448q4 0 7 -3t3 -8v-78q0 -4 -3 -7t-7 -3h-45q-22 0 -29 -8.5t-7 -27.5v-49h78q4 0 7 -3t3 -8v-84q0 -4 -3 -7t-7 -3h-78v-213q0 -4 -3 -7t-8 -3h-87q-4 0 -7 3t-3 7v213h-67q-4 0 -7 3t-3 7v84q0 5 3 8t7 3h67v58q0 57 33.5 91.5t89.5 34.5h66z" />
    <glyph glyph-name="google" unicode="&#xf10c;" 
d="M393 214v0v-61q-14 -68 -69.5 -112.5t-127.5 -44.5q-81 0 -138.5 57.5t-57.5 138.5t57.5 138.5t138.5 57.5t138 -56l-44 -48q-39 39 -94 39q-54 0 -92.5 -38.5t-38.5 -92.5t38.5 -92.5t92.5 -38.5q44 0 78.5 25.5t46.5 66.5h-111v61h183zM512 214v-32h-38v-38h-32v38h-37
v32h37v37h32v-37h38z" />
    <glyph glyph-name="home" unicode="&#xf10d;" 
d="M507 240q10 -8 2 -19q-4 -5 -10 -5q-5 0 -8 2l-235 172l-235 -172q-11 -7 -18.5 3.5t2.5 18.5l243 178q8 5 16 0zM442.5 215q5.5 0 9.5 -3.5t4 -9.5v-225q0 -5 -4 -9t-10 -4h-133q-12 0 -13 12v1v129q0 16 -11.5 28t-28.5 12t-28.5 -12t-11.5 -28v-129v-1q-1 -12 -13 -12
h-133q-6 0 -10 4t-4 9v225q0 6 4 9.5t9.5 3.5t9.5 -3.5t4 -9.5v-212h106v116q0 27 19.5 47t47.5 20t47.5 -19.5t19.5 -47.5v-116h106v212q0 6 4 9.5t9.5 3.5z" />
    <glyph glyph-name="instagram" unicode="&#xf10e;" 
d="M371 448q58 0 99.5 -41.5t41.5 -99.5v-230q0 -58 -41.5 -99.5t-99.5 -41.5h-230q-58 0 -99.5 41.5t-41.5 99.5v230q0 58 41.5 99.5t99.5 41.5h230zM467 77v230q0 39 -28.5 67.5t-67.5 28.5h-230q-39 0 -67.5 -28.5t-28.5 -67.5v-230q0 -39 28.5 -67.5t67.5 -28.5h230
q39 0 67.5 28.5t28.5 67.5zM256 324q55 0 93.5 -38.5t38.5 -93.5t-38.5 -93.5t-93.5 -38.5t-93.5 38.5t-38.5 93.5t38.5 93.5t93.5 38.5zM256 106q36 0 61 25t25 61t-25 61t-61 25t-61.5 -25t-25.5 -61t25.5 -61t61.5 -25zM393.5 362q13.5 0 23.5 -9.5t10 -23.5t-10 -23.5
t-23.5 -9.5t-23.5 9.5t-10 23.5t10 23.5t23.5 9.5z" />
    <glyph glyph-name="list" unicode="&#xf10f;" 
d="M34 301q-14 0 -24 9.5t-10 23.5v80q0 14 10 24t24 10h80q14 0 23.5 -10t9.5 -24v-80q0 -14 -9.5 -23.5t-23.5 -9.5h-80zM26 414v-80q0 -8 8 -8h80q8 0 8 8v80q0 8 -8 8h-80q-8 0 -8 -8zM0 152v80q0 14 10 24t24 10h80q14 0 23.5 -10t9.5 -24v-80q0 -14 -9.5 -24
t-23.5 -10h-80q-14 0 -24 10t-10 24zM26 232v-80q0 -8 8 -8h80q8 0 8 8v80q0 8 -8 8h-80q-8 0 -8 -8zM0 -30v80q0 14 10 23.5t24 9.5h80q14 0 23.5 -9.5t9.5 -23.5v-80q0 -14 -9.5 -24t-23.5 -10h-80q-14 0 -24 10t-10 24zM26 50v-80q0 -8 8 -8h80q8 0 8 8v80q0 8 -8 8h-80
q-8 0 -8 -8zM499 415q5 0 9 -4t4 -9t-4 -9t-9 -4h-288q-5 0 -9 4t-4 9t4 9t9 4h288zM499 359q5 0 9 -3.5t4 -9t-4 -9.5t-9 -4h-288q-5 0 -9 4t-4 9.5t4 9t9 3.5h288zM499 233q5 0 9 -4t4 -9t-4 -9t-9 -4h-288q-5 0 -9 4t-4 9t4 9t9 4h288zM499 177q5 0 9 -4t4 -9t-4 -9
t-9 -4h-288q-5 0 -9 4t-4 9t4 9t9 4h288zM499 51q5 0 9 -4t4 -9.5t-4 -9t-9 -3.5h-288q-5 0 -9 3.5t-4 9t4 9.5t9 4h288zM512 -18q0 -5 -4 -9t-9 -4h-288q-5 0 -9 4t-4 9t4 9t9 4h288q5 0 9 -4t4 -9z" />
    <glyph glyph-name="logout" unicode="&#xf110;" 
d="M79 169l31 -30q6 -7 6 -16.5t-6.5 -16.5t-16.5 -7t-16 7l-70 70q-1 0 -2 1v1l-1 1q-1 1 -1 2q-1 1 -1 2q-1 1 -1 2q0 2 -1 2v1v2v2v2v2v1q1 0 1 1.5t0.5 2.5l1 2t1 1.5l1.5 1.5v1q1 1 2 1l70 70q6 7 16 7t16.5 -7t6.5 -16.5t-6 -16.5l-31 -30h270q10 0 16.5 -6.5
t6.5 -16.5t-6.5 -16.5t-16.5 -6.5h-270zM322 382q78 0 134 -55.5t56 -134.5t-56 -134.5t-134 -55.5q-48 0 -90 22t-68 62q-6 8 -4 17t10 14.5t17.5 4t14.5 -9.5q20 -30 52 -47t68 -17q59 0 101 42.5t42 101.5t-42 101.5t-101 42.5q-36 0 -68 -17t-52 -47q-5 -8 -14.5 -10
t-17.5 3.5t-10 15t4 17.5q26 40 68 62t90 22z" />
    <glyph glyph-name="menu" unicode="&#xf111;" 
d="M0 21v57h512v-57h-512zM0 164v56h512v-56h-512zM0 363h512v-57h-512v57z" />
    <glyph glyph-name="next" unicode="&#xf112;" 
d="M387 202q10 -10 0 -20l-242 -242q-4 -4 -10 -4t-10 4q-10 11 0 21l231 231l-231 231q-10 10 0 20.5t21 0.5z" />
    <glyph glyph-name="pdf" unicode="&#xf113;" 
d="M149 186q0 -25 -29 -25q-8 0 -11 1v44q4 2 14 2q26 0 26 -22zM254 207q22 0 34.5 -12t12.5 -35q0 -27 -13.5 -40t-37.5 -13q-9 0 -12 1v98q6 1 16 1zM454 265q12 0 20.5 -8.5t8.5 -20.5v-149q0 -12 -8.5 -20.5t-20.5 -8.5h-12v-102q0 -8 -6 -14t-14 -6h-332q-8 0 -14 6
t-6 14v102h-12q-12 0 -20.5 8.5t-8.5 20.5v149q0 12 8.5 20.5t20.5 8.5h12v163q0 8 6 14t14 6h243h2h1q1 -1 2 -1v-1q2 0 2 -1h1l98 -113q3 -3 3 -7v-1v-59h12zM90 428v-163h332v50h-89q-10 0 -10 10v103h-233zM337 161q0 37 -26 56q-21 16 -61 16q-26 0 -46 -3v-147
q17 -2 39 -2q46 0 69 19q25 21 25 61zM75 82h34v54q4 -1 11 -1q32 0 49 16q14 13 14 36q0 22 -16 34q-15 12 -46 12q-28 0 -46 -3v-148zM422 -38v96h-332v-96h332zM451 204v28h-92v-150h34v60h54v28h-54v34h58z" />
    <glyph glyph-name="pinterest" unicode="&#xf114;" 
d="M405 396q52 -51 52 -120q0 -88 -44 -146q-46 -59 -119 -59q-39 0 -66 26q-13 -53 -16 -63q-2 -8 -7 -21.5t-14 -34t-20.5 -32.5t-23.5 -9q-13 3 -15 31.5t1 51t6 35.5t36 153q-9 21 -9 47q0 34 18.5 58t45.5 24q21 0 34 -14t13 -37q0 -18 -15 -64q-8 -27 -11 -40
q-4 -18 6 -31q11 -14 31 -14q35 0 59 41q24 42 24 103q0 47 -30 74.5t-81 27.5q-61 0 -97 -39t-36 -90q0 -31 17 -51q9 -11 6 -23q-5 -19 -6 -23q-4 -15 -17 -15q-4 0 -8 2q-30 12 -47 43t-17 74q0 71 53 126q61 61 160 61q82 0 137 -52z" />
    <glyph glyph-name="play" unicode="&#xf115;" 
d="M256 448q106 0 181 -75t75 -181t-75 -181t-181 -75t-181 75t-75 181t75 181t181 75zM389 185q4 2 4 7t-4 7l-188 128q-4 3 -8.5 0.5t-4.5 -7.5v-256q0 -5 4 -8q2 -1 4 -1q3 0 5 2z" />
    <glyph glyph-name="prev" unicode="&#xf116;" 
d="M156 192l231 -231q10 -10 0 -21q-4 -4 -10 -4t-10 4l-242 242q-10 10 0 20l242 242q10 10 20 -0.5t0 -20.5z" />
    <glyph glyph-name="repair" unicode="&#xf117;" 
d="M14 18l157 157l68 -67l-157 -158q-14 -14 -34 -14t-34 14t-14 34t14 34zM408 310l-84 -84l-34 34l84 84l35 68l69 36l34 -34l-36 -69zM423 128q37 -3 63 -30.5t26 -65.5q0 -21 -10 -41l-63 64q-5 5 -12 7q-6 2 -11 2q-13 0 -22 -9q-15 -14 -8 -34q3 -7 8 -11l63 -64
q-20 -9 -41 -9q-38 0 -65.5 25.5t-29.5 63.5l-1 6q0 17 6 34l-196 196q-17 -6 -34 -6l-6 1q-38 2 -63.5 29.5t-25.5 65.5q0 21 9 41l64 -64q4 -4 11 -7q6 -2 11 -2q14 0 23 9q14 15 7 34q-2 7 -7 12l-64 63q20 10 41 10q38 0 65.5 -26t30.5 -63v-7q0 -16 -6 -33l197 -197
q17 6 33 6h7z" />
    <glyph glyph-name="search" unicode="&#xf118;" 
d="M508 -38q10 -11 0 -21q-5 -5 -11.5 -5t-10.5 5l-124 124q-62 -54 -144 -54q-90 0 -154 64t-64 154.5t64 154.5t154.5 64t154.5 -64t64 -154q0 -82 -54 -143zM31 229.5q0 -77.5 55 -132.5t132.5 -55t132.5 55t55 132.5t-55 132.5t-132.5 55t-132.5 -55t-55 -132.5z" />
    <glyph glyph-name="sigma" unicode="&#xf119;" 
d="M371 108v170h38v-170h-38zM786 278h49l29 -170h-39l-17 122h-1l-32 -122h-32l-33 122h-1l-16 -122h-37l26 170h49l28 -94zM1017 108l-13 34h-84l-13 -34h-38l68 170h52l68 -170h-40zM962 248l-29 -74h58zM533 209h99q1 -20 0 -26q-1 -83 -92 -83q-43 0 -70 24.5t-27 67.5
q0 47 28 70.5t70 23.5q46 0 81 -20l-18 -29q-28 15 -63 15q-25 0 -41.5 -15t-16.5 -45t16 -44.5t42 -14.5q24 0 38 11t14 28v2h-60v35zM295 207q42 -9 42 -49q0 -28 -23.5 -44t-62.5 -16q-42 0 -79 17l16 32q32 -14 65 -14q20 0 32 6t12 16q0 15 -24 18q-10 2 -29 3.5
t-31 4.5q-18 4 -29 16t-11 31q0 30 25 44t54 14q47 0 79 -16l-18 -31q-28 13 -57 13q-20 0 -32 -5.5t-12 -16.5q0 -12 19 -15q12 -3 31.5 -4t32.5 -4z" />
    <glyph glyph-name="sort" unicode="&#xf11a;" 
d="M334 9q4 0 6.5 -2.5t2.5 -6.5v-55q0 -4 -2.5 -6.5t-6.5 -2.5h-73q-4 0 -6.5 2.5t-2.5 6.5v55q0 4 2.5 6.5t6.5 2.5h73zM197 46q4 0 6.5 -2.5t2.5 -6.5t-3 -7l-91 -91q-3 -3 -7 -3q-3 0 -6 3l-92 91q-4 5 -2 10q3 6 9 6h55v393q0 4 2.5 6.5t6.5 2.5h55q4 0 6.5 -2.5
t2.5 -6.5v-393h55zM389 155q4 0 6.5 -2.5t2.5 -6.5v-55q0 -4 -2.5 -6.5t-6.5 -2.5h-128q-4 0 -6.5 2.5t-2.5 6.5v55q0 4 2.5 6.5t6.5 2.5h128zM505 445.5q3 -2.5 3 -6.5v-55q0 -4 -3 -6.5t-7 -2.5h-237q-4 0 -6.5 2.5t-2.5 6.5v55q0 4 2.5 6.5t6.5 2.5h237q4 0 7 -2.5z
M444 302q4 0 6.5 -2.5t2.5 -6.5v-55q0 -4 -2.5 -6.5t-6.5 -2.5h-183q-4 0 -6.5 2.5t-2.5 6.5v55q0 4 2.5 6.5t6.5 2.5h183z" />
    <glyph glyph-name="top_user" unicode="&#xf11b;" 
d="M254 172q-47 1 -74 32q-19 21 -27.5 53.5t-7 52t0.5 27.5q3 69 52 96q26 15 57 15h1h1q32 -1 57 -15q48 -28 52 -96q-1 -8 0.5 -27.5t-7 -52t-27.5 -53.5q-28 -31 -74 -32h-2h-2zM175 334q0 -4 -1.5 -20.5t5.5 -45t22 -45.5q20 -22 54 -22h1v0q35 0 55 22q15 17 22 45.5
t5 45t-1 20.5v1q-1 25 -9.5 43t-21.5 26t-25 11.5t-25 3.5h-1q-11 0 -22 -2.5t-25 -10.5t-23 -26t-10 -45v-1zM474 41q0 -32 -5 -48q-2 -4 -6 -6q-10 -7 -27 -15.5t-70 -22t-110 -13.5t-109.5 13.5t-70.5 22.5t-27 15q-4 2 -5 6q-6 16 -6 48v1v2q3 70 48 86h1
q22 6 44.5 16.5t31.5 16t12 8.5q12 8 20.5 -4t-3.5 -20q-50 -32 -97 -44q-27 -10 -28 -59v-2v-1q-1 -20 2 -33q77 -43 187 -43t187 43q2 12 2 33v2q-1 50 -28 60q-54 14 -97 44q-12 8 -3.5 20t20.5 3q3 -2 12 -7.5t31.5 -16t44.5 -16.5h1q45 -16 48 -86v-1v-1v-1z" />
    <glyph glyph-name="twitter" unicode="&#xf11c;" 
d="M512 351q-21 -32 -53 -55l1 -13q0 -53 -20 -105.5t-56.5 -96t-94.5 -70.5t-128 -27q-87 0 -161 47q13 -1 25 -1q73 0 130 45q-34 0 -60.5 20.5t-37.5 52.5q10 -2 20 -2q14 0 28 3q-36 8 -60 37t-24 66v2q22 -13 47 -13q-47 31 -47 87q0 28 15 53q39 -49 95.5 -78
t120.5 -32q-3 12 -3 24q0 43 31 74t74 31q46 0 77 -33q36 7 67 25q-12 -37 -46 -58q31 4 60 17z" />
    <glyph glyph-name="up" unicode="&#xf11d;" 
d="M500 58l-244 244l-244 -244l-12 12l256 256l256 -256z" />
    <glyph glyph-name="user" unicode="&#xf11e;" 
d="M474 51q17 -9 27.5 -25.5t10.5 -36.5v-32h-119h-18h-375v36q0 22 11 40t29 28l76 42q12 6 12 19v29q-21 28 -30 61q-13 11 -13 27v34q0 13 9 22v46q-3 32 18 56q26 30 84 30t85 -30q8 -10 13 -21q19 7 41 7q28 0 49 -11.5t31 -25t16 -31t7 -25t1 -11.5q1 -67 54 -142
q7 -10 3.5 -21.5t-14.5 -16.5q-18 -8 -42 -5l-56 -1q3 -5 6 -6zM375 -26v18q0 37 -33 53l-81 41q-6 3 -10 7h-1l-2 3l-4 6v1q-1 2 -3 5v1q-1 2 -1 5v0.5t-1 0.5v7v35l2 2q3 4 7 9q16 22 24 49l2 4l4 2q12 3 12 16v34q0 7 -6 13l-2 2v54v4v2v3q0 2 -1 3v2v1v2q-1 1 -1 2
q-3 14 -12 24q-22 25 -72 25t-71 -25q-17 -18 -14 -43v-1v-53l-3 -2q-6 -6 -6 -13v-34q0 -9 8 -14l3 -2l1 -4q8 -34 29 -60l2 -2v-35q0 -23 -21 -34l-76 -42q-31 -17 -31 -53v-19h358zM495 -26v15q0 32 -29 46l-83 36q-9 5 -15 17q-4 8 0.5 15.5t13.5 7.5h59q22 -1 35 4
q3 1 4 5t-1 7q-56 80 -57 152q0 4 -1 10.5t-6 21t-13.5 25.5t-26 20.5t-40.5 9.5q-21 0 -37 -7q2 -10 1 -18v-46q8 -9 8 -22v-34q0 -22 -20 -31q-9 -27 -25 -49q-3 -5 -6 -9v-28q0 -3 1 -6q0 -1 1 -3l1 -2h19q10 0 14 -10q2 -6 -1 -11l59 -29q20 -10 31.5 -28.5t11.5 -40.5
v-18h102z" />
    <glyph glyph-name="vimeo" unicode="&#xf11f;" 
d="M437 414q79 -3 75 -103q-4 -75 -105 -205q-104 -136 -176 -136q-45 0 -76 83q-36 131 -41 152q-23 83 -50 83q-6 0 -40 -24l-24 31q36 32 75 67q50 44 75 46q30 3 48.5 -17.5t25.5 -64.5q15 -94 20 -117q18 -79 38 -79q16 0 48.5 51t34.5 77q4 44 -34 44q-19 0 -38 -8
q37 123 144 120z" />
    <glyph glyph-name="youtube" unicode="&#xf120;" 
d="M460 183q8 -32 8 -100q0 -66 -8 -100q-4 -16 -16.5 -27.5t-28.5 -13.5q-53 -6 -159 -6t-159 6q-16 2 -29 13.5t-16 27.5q-8 32 -8 100q0 67 8 100q4 17 16.5 28.5t29.5 13.5q52 6 158 6t159 -6q16 -2 29 -13.5t16 -28.5zM165 155v26h-89v-26h30v-163h29v163h30zM242 -8
v141h-25v-108q-9 -12 -16 -12q-6 0 -6 6q-1 1 -1 10v104h-25v-112q0 -14 2 -20q4 -11 17 -11t29 17v-15h25zM339 34v57q0 20 -2 28q-5 16 -20 16t-27 -16v62h-25v-189h25v14q13 -16 27 -16q15 0 20 16q2 7 2 28zM436 58v29q0 23 -8 33q-11 15 -30 15t-31 -15q-8 -10 -8 -33
v-49q0 -23 9 -33q11 -15 31 -15t30 15q6 8 6 16q1 2 1 16v4h-26q0 -15 -1 -18q-2 -10 -11 -10q-13 0 -13 20v25h51zM303 112q11 0 11 -19v-61q0 -19 -11 -19q-7 0 -13 6v86q6 7 13 7zM398 112q13 0 13 -20v-13h-26v13q0 20 13 20zM149 334q-4 21 -18 61q-10 29 -18 53h30
l20 -75l20 75h29l-35 -114v-77h-28v77zM250 255q-19 0 -30 14q-8 11 -8 34v50q0 23 8 33q11 15 30 15q20 0 30 -15q8 -10 8 -33v-50q0 -23 -8 -34q-10 -14 -30 -14zM238 358v-60q0 -20 12 -20t12 20v60q0 20 -12 20t-12 -20zM329 255q-14 0 -17 10q-3 7 -3 22v112h26v-105
q0 -9 1 -10q1 -6 6 -6q7 0 16 12v109h26v-142h-26v15q-15 -17 -29 -17z" />
  </font>
</defs>
</svg>
