<svg xmlns="http://www.w3.org/2000/svg" width="75.05" height="51.71" viewBox="0 0 75.05 51.71">
  <title>Fichier 4</title>
  <g id="81c6a77d-24a5-46d0-a37f-5f309601283f" data-name="Calque 2">
    <g id="509b088a-a6a2-4023-9b17-7b8da2b0bdb8" data-name="Calque 1">
      <g>
        <polyline points="27.38 20.66 49.53 34.09 50.57 32.38 28.41 18.95" style="fill: #fff"/>
        <polyline points="7.91 44.08 23.04 21.22 21.37 20.12 6.24 42.98" style="fill: #fff"/>
        <path d="M27.63,20.06l.83.55a4.92,4.92,0,1,0-4.1,2.2,4.9,4.9,0,0,0,4.1-2.2l-.83-.55-.83-.55a2.92,2.92,0,1,1,.48-1.61,2.91,2.91,0,0,1-.48,1.61Z" style="fill: #fff"/>
        <path d="M8.18,49l.83.55a4.91,4.91,0,1,0-4.1,2.2A4.9,4.9,0,0,0,9,49.51L8.18,49l-.83-.55a2.91,2.91,0,1,1,.48-1.61,2.91,2.91,0,0,1-.48,1.61Z" style="fill: #fff"/>
        <polyline points="55.89 32.84 69.12 8.83 67.37 7.86 54.14 31.87" style="fill: #fff"/>
        <path d="M73.56,6.81l.88.48a4.91,4.91,0,1,0-4.31,2.54,4.9,4.9,0,0,0,4.31-2.54l-.88-.48-.88-.48A2.91,2.91,0,1,1,73,4.92a2.92,2.92,0,0,1-.36,1.4Z" style="fill: #fff"/>
        <path d="M56.56,37.67l.88.48a4.91,4.91,0,1,0-4.31,2.54,4.9,4.9,0,0,0,4.31-2.54l-.88-.48-.88-.48a2.91,2.91,0,1,1,.36-1.4,2.92,2.92,0,0,1-.36,1.4Z" style="fill: #fff"/>
      </g>
    </g>
  </g>
</svg>
