<svg xmlns="http://www.w3.org/2000/svg" width="36.76" height="46.95" viewBox="0 0 36.76 46.95">
  <title>Fichier 9</title>
  <g id="29961e56-e8ef-4d4d-b3d3-1836a238f124" data-name="Calque 2">
    <g id="1fd7ecbd-b6c9-418b-9057-71b046302392" data-name="Calque 1">
      <g>
        <polygon points="30.34 1 30.34 15.26 18.37 22.11 6.41 15.26 6.41 3.45 4.41 3.45 4.41 16.42 18.37 24.42 32.34 16.42 32.34 1 30.34 1 30.34 1" style="fill: #fff"/>
        <polygon points="17.88 24.14 30.38 31.24 30.46 43.58 32.46 43.56 32.38 30.07 18.87 22.4 17.88 24.14 17.88 24.14" style="fill: #fff"/>
        <polygon points="6.53 45.56 6.45 31.3 16.38 25.57 15.38 23.84 4.45 30.14 4.53 45.57 6.53 45.56 6.53 45.56" style="fill: #fff"/>
        <polyline points="36.76 0 0 0 0 2 36.76 2" style="fill: #fff"/>
        <polyline points="0 46.95 36.76 46.95 36.76 44.95 0 44.95" style="fill: #fff"/>
      </g>
    </g>
  </g>
</svg>
