<svg xmlns="http://www.w3.org/2000/svg" viewBox="0 0 1923 1083"><defs><style>.cls-1{isolation:isolate;}.cls-2{mix-blend-mode:overlay;}.cls-3{fill:#221e20;opacity:0.11;}</style></defs><title>Fichier 1</title><g class="cls-1"><g id="Calque_2" data-name="Calque 2"><g id="Calque_1-2" data-name="Calque 1"><g class="cls-2"><path class="cls-3" d="M0,179q29.79-13.26,59.51-26.58,88-36.34,173-74.93Q321.08,37.13,413.94,0H83.06Q41.38,20.31,0,40.82Z"/><path class="cls-3" d="M1490,819.72q-91.14,32.74-179.5,68L1151,954.25Q1004.46,1018.14,859.27,1083h311.84q25.28-12.06,50.3-24.3a54,54,0,0,0,13.28,9.52,65.86,65.86,0,0,0,28.44,4.92c-6,3.21-11.78,6.52-17.52,9.86H1641.1c43-43.84,95.23-84.12,149.69-123.5q39.82-27.33,80.28-54.38,21.79-14.68,43.64-29.35l8.29-2.54V543.73c-146,88.86-285,181.8-427.4,272.49C1493.76,817.39,1491.87,818.54,1490,819.72Z"/><path class="cls-3" d="M1923,1012.25l-22,10.25q-82.66,28.57-161.2,60.5h177.07c2-.76,4.09-1.51,6.12-2.28Z"/><path class="cls-3" d="M504.63,703.82l-.51.39-27.11,12Q279.43,807.53,88.78,903.51c-18.19,9-4.49,29.08,8.91,36.45q22.62,10.47,50.77,3.7a548.58,548.58,0,0,0,81-17.68l174.63-66.7q227.31-79.11,466.8-145.67l32.13-9.9q-73.15,52.56-144.87,105.73c-93.91,38.12-190.56,74.14-285.64,111.2q-99.19,39.11-191.94,83.08c-54,24.48-102.11,51.35-149.25,79.28H819.57c27.06-14.58,53.5-29.58,79.11-45.13C1032.78,965.24,1167,893,1297.75,818.47,1461.11,725.36,1611,624.69,1753.22,521q85.15-1.15,169.78-7.46V450.19q-33.9,2.9-68,5.05c22.74-10.55,45.33-21.18,68-31.77V139.05c-8.89,2.27-17.75,4.61-26.67,6.84q13.31-5.14,26.67-10.24V0h-35.51q-91.24,50.1-182.06,100.42c-2.28.62-4.59,1.18-6.86,1.82-61.72,15.35-122.44,33.84-180.25,53.48-31,10.53-61,21.69-90.49,33.17q20.52-25.93,40.46-52Q1522.2,68.3,1577.11,0h-199q-22.42,31.47-44.75,62.94-61.27,87.66-119.53,176a566.21,566.21,0,0,1-45.09,62c-28.55,14.13-56.57,28.57-84.14,43.1l-19.16,11c-8.71,6.05-17.5,12.07-26.27,18.1q-110.58,36.47-219.77,74.32-122,56.35-264.44,92.07Q497.17,557,441.21,576.24l21.27-23.59,95.79-84.71q61.23-42.82,122.43-85.67,24.6-15.76,49.15-31.57,77.07-41,154.08-82.15,159.45-95.74,317.78-192.1A1206.87,1206.87,0,0,1,1301.81,0H517.07q-44,21.95-87.81,44.13-155.7,81.26-306.4,165.56Q61.29,243.14,0,276.74V409.83q13.58-9.18,27.16-18.32,66.54-41,137.8-79.45L235,276.68Q340.21,225.56,447.76,176,582.4,115.82,705.59,48.2c-28.61,32.58-58.62,64.72-94,95.28-5,3.84-10.06,7.71-15.19,11.5q-74.79,42.84-150.73,85C317.28,312.1,183.78,381.11,46.71,447.81Q23.34,456.12,0,464.48v131c9.18-4.4,18.41-8.78,27.56-13.2q137.1-66.18,270-135.13c87.57-44.63,172.38-90.9,255.78-138q15.32-6.86,30.55-13.8C642.17,268.69,695,237.49,746.5,206.74c10.31-6.23,20.3-12.59,30.14-19q24.38-9,48.55-18.23C760.08,220.64,695.39,272,629.54,322.82q-6.46,4.68-12.9,9.37Q519.11,384.5,422.08,437.08q-91,49.44-178.41,100.94c-60.74,35.2-118.34,72.14-173.85,110.06-19.1,7.61-38.21,15.2-57.48,22.67-3.35,4.33-6.68,8.64-10,13A18.81,18.81,0,0,0,5.67,693c-1.89,1.34-3.79,2.68-5.67,4V884.37q221-71.88,431.05-153.93Q467.89,717.18,504.63,703.82ZM1693.07,243.56q113.09-33,225.47-66.8l2.07-.42-21,21.85q-140.74,43.68-276,92.52Q1657.61,266.78,1693.07,243.56ZM1517.2,370.28c1.67-1.33,3.39-2.63,5.06-3.95q114.84-26,228.74-53.3-23.71,17.54-47.46,35c-78.81,32.87-158.89,64.77-238.6,96.71q-45.6,18.27-92.06,35.82c15.58-11.83,31.22-23.62,46.77-35.45Q1468.43,407.7,1517.2,370.28Zm-105-26.73c-6.49,4.79-13,9.56-19.47,14.38q-16,11.38-32,22.74-35.27,8.79-69.68,18.49Q1352.2,371.77,1412.2,343.55Zm-166,253.12q-31.71,14-63.39,28.07c2.4-1.81,4.77-3.64,7.18-5.45,3.43-2.6,6.82-5.2,10.25-7.78Q1223.25,604.13,1246.19,596.67ZM893.13,609.28Q932,593.4,971.32,577.9q118-42.63,233.82-87.06-70.92,49.95-142,99.79c-66.82,22.59-134,44.85-201,67.13l-90.44,28Q832.62,647.64,893.13,609.28ZM61.14,793c1.33-1.26,2.59-2.54,3.92-3.8,24.75-24.56,52.17-48.26,80.51-71.58q8.6.3,17.22.46a1015.7,1015.7,0,0,0,130-1.37l130.64-36q42.48-17.57,85.22-34.88c60.73-24.74,120.55-50.26,181.33-75q28.11-8.71,54.21-19.26,33.73-13.84,67.86-27.29C773,549,733,573.4,692.66,597.55q-43.67,18.65-83,39.8Q371.75,722.21,107.86,779.86,84.3,786.18,61.14,793Z"/><path class="cls-3" d="M50.86,11Q67.27,5.49,83.71,0H0V42.25C16.86,31.78,33.86,21.39,50.86,11Z"/><path class="cls-3" d="M95.12,779.9l87.21-18.27L157.05,763a334.94,334.94,0,0,1,70.44.09q-1.23,6,5.58,12.7-15.69,11.76-31,23.64A1374.41,1374.41,0,0,0,94.8,887.65a798.69,798.69,0,0,0-85.55,90.6c-16.4,18.83,29.13,28,51.35,26.14L116.29,995q77-16.56,149.67-38.57,224.4-76.77,439.56-161.62,12.71-5,25.37-10c-10.85,7.42-21.54,14.9-32,22.55-3.69,4.16-5.19,8.05-4.75,11.69Q517,893,351.12,975.21q-27.62,8.25-24.88,25.46,7.92,16.68,38.86,19a896.45,896.45,0,0,0,122.08-6.31,842.65,842.65,0,0,0,118.36-18.11l195.75-66.91q121.58-26.4,227.25-67.28-11.87,8.69-23.73,17.38c-11.41,4.77-22.74,9.62-34.18,14.37-95.42,39.66-195.1,76.18-292.7,114.06q-91.54,35.94-177.37,76.15H1923V0h-70.14c-21,12.09-42.3,24-64.43,35.51-10.28,4.93-20.33,10-30.45,15L1797.53,0H206.6c-24.43,15.5-48,31.35-71,47.44Q68.19,74.67,0,101.23V462.62Q161.94,398.82,313.31,327l170.07-81.46q32.5-15.81,65.13-31.51l-34.39,27.47Q415,302.67,307.28,358.88C217.88,407.31,130.52,456,45.76,507.1,30.19,516.81,15,526.71,0,536.68V805.77q18.77-2.37,37.34-5.3Zm747.8-183.78,79-104q42.08-43.36,84.15-86.73,77.86-72.54,166.5-140.91,61.64-49,126.81-96.46c16.16-11.78,32.74-23.37,49.59-34.82q14.73-6.74,29.35-13.57,15.35-7.23,30.24-14.75c-30.63,56.06-59.48,112.39-87.06,168.94-10.87,4.81-21.74,9.62-32.72,14.36q-133.41,44.6-248.93,102.94Q962,430,989.53,499.91l-64.11,80.72q-32.46,12-65.12,23.93l-24.39,6C838.3,605.75,840.62,600.93,842.92,596.12Zm-412,232.13q9.54-8.5,19.22-16.93c7.34.54,14.71,1,22.05,1.44Zm-31.59-196q110.31-54.12,217.93-110,74.58-38,146.87-77.44l-19,13q-86.45,52.56-175.64,103.63C495.51,604.4,423.77,648.23,353.29,693Q376,662.9,398.68,632.79ZM357.51,467q-11.46,15.15-23.06,30.27-37.21,18.5-74.9,36.71Q307.88,500.08,357.51,467Z"/><path class="cls-3" d="M256.21,535.58l-.32.15c2.68-2,5.27-4,8-6Z"/><path class="cls-3" d="M159.45,53.76Q80.84,75.74,0,94.6V202q92.55-37.74,185.05-75.48,45.82-20,90.54-40.76Q334.54,63.65,392.85,41l43-13.39q39.21-12.75,76-27.61H284.45q-48,20.94-96.37,41.65C178.6,45.73,169,49.74,159.45,53.76Z"/><path class="cls-3" d="M6.66,79.66Q132.71,39.39,259.52,0H0V83Z"/><path class="cls-3" d="M1643.06,1073.79c-9.56,3-19,6.13-28.56,9.21H1923V908.81q-118.5,77.55-241.64,152.78Z"/><path class="cls-3" d="M12.14,1050.29C8,1053.94,4,1057.62,0,1061.32V1083H330q112-50.76,231.72-94.67Q455.36,1034.71,351.64,1083H603.51Q814.76,1013,1037.56,955.49c-3.55,2.47-7.14,4.92-10.68,7.39q-17.66,12.25-35.09,24.61c-75.65,32-152.2,63.4-230.63,93.4L755.5,1083h471.6c51.69-31.09,104.2-61.75,157.06-92.31q-45.56,30.87-93,60.88L1232.77,1083h215c11.88-7.06,23.51-14,34.77-20.61,155.12-91.38,298.33-188.5,434.74-288.82H1923V509q-58.12,16.66-116.31,33.25,51.69-44.38,116.31-81.38V314.08q-41.1,23-82.24,46l-71.57,21.21q-71.87,21.32-141.57,44.8,26.46-34,54.7-67.49Q1804.77,206.32,1923,52.92V0H1738.21q-41.4,19.85-84.15,38.73C1666,26.06,1677,13.14,1687.41,0h-504.2Q1155.79,13.64,1128,27L888.14,83.4q-69.27,20.31-139.5,39.47,91.92-41.94,184.44-83.5Q977,19.75,1020.75,0H778.32Q694,30.45,607.55,59.09q-198.24,55.46-396,111.46Q105,203,0,236.91v66c122.56-46,251.29-87.06,377.66-129.43Q489.92,137.35,605,104.29q-122.1,61.65-245.51,122.46-70.38,33.6-142.8,65.79L176.89,307Q90.45,339.25,0,367.61v93.25Q75.38,429,148.79,395.51q34.77-15.51,69.45-31.09Q275,341.64,330.72,318l118.17-48.87q139.9-55.2,283.93-106.87l219.85-52.58c-37.44,17.49-74.8,35-111.72,52.77q-82.43,40.75-162.73,82.82C529.62,322,386.79,402,243.79,482.09Q127.38,548.58,0,608.08V873.51c4.24-1.86,8.5-3.7,12.73-5.57,138.25-60,271-123.86,403.32-188,24.66-7.65,49.18-15.45,73.39-23.59,75.3-24,140.77-55.36,206.54-86.7Q751.56,544.08,804.84,517l80.83-41.78C909.18,461,931.84,446.45,954,431.6Q1060,387,1165.53,342.07c2.11-.91,4.16-1.85,6.27-2.76-7,4.71-14,9.45-21.07,14.13L1028,435.89q-93.37,59.33-193,115.26l-85.64,46C673.24,636.44,597.42,675.9,522.53,716q-28.27,12.79-57.43,25L280.41,813.5q-92.82,42-180.59,87.38Q83.1,910.93,78.6,924.53c-4.43,16.11,23.38,22.86,43.14,29.66,1.77.65,3.57,1.26,5.37,1.89-3,2.16-6.1,4.3-9.13,6.46A1263.23,1263.23,0,0,0,12.14,1050.29Zm984-810.12c-14.63,16.65-29.17,33.24-43.87,49.76l-11.88,4.7c-30.2,12-60.1,24.2-90.1,36.31l-23,9.3q-126,71.11-254.06,141.05C394.74,579.57,205.86,671.64,11.48,759.79c18.18-13.37,36.79-26.55,56.06-39.45,99.14-70.16,217.88-131.57,333.4-192.71C505.8,472.15,616.52,420.31,725.23,367.32Q862,303,997.94,238.15C997.34,238.82,996.75,239.5,996.16,240.17Zm-428.91,810.1c17.07-8.27,34.09-16.57,51.25-24.77,6.86-3.28,13.78-6.53,20.65-9.8a317.12,317.12,0,0,0,36.64,1.3c6.58.24,13.08.27,19.54.1Q631.06,1033.39,567.25,1050.27Zm529.3,2.85q16.68-12.13,33.39-24.24,22.86-10,45.63-20.09Q1135.67,1030.72,1096.55,1053.12Zm83.34-195.72q-78.17,27.63-155.7,55.83l-183.1,67.84q-36.23,8.71-72.29,17.65c97.93-56.82,195.93-113.52,292.47-171.08Q1223,763.26,1395.51,709.52,1287.9,783.56,1179.89,857.4Zm242.88-198q75.4-35.34,149.38-71.64-28.77,19.93-57.6,39.83Q1468.49,643.29,1422.77,659.37Zm255.86-23.18,9.75-7.14q95.07-21,188.06-44.58a374.19,374.19,0,0,0-60.81,34.3c-66.9,28.83-134.86,56.9-203.18,84.88L1555.24,725Q1617.13,680.72,1678.63,636.19ZM1271.46,122.85c28-28.18,59.74-54.24,94.07-79.44q52.38.08,104.63,2.36-6.87,7.24-13.72,14.51a1035.59,1035.59,0,0,1-101.08,85q-77.28,26-154.82,51.95C1223.63,172.27,1247.08,147.46,1271.46,122.85ZM847.31,628.12c113.93-62.41,227.17-125.23,340.79-187.81q94.71-55.68,189.39-111.37,130.77-87,250.66-179c10.53-7.74,4.62-18.71-5.74-26.63q14-5.62,27.83-11.3l73.35-30c24.84-12.39,50.19-24.45,75.82-36.32-53.76,76.14-110.37,151.58-167.12,227q-61.21,82-124.22,163.52-13,20.61-26.91,41c-41.91,15.59-83.11,31.8-123.91,48.58-52.56,21.6-102.94,45.22-150.72,70.13l-55.84,37.91q-108.7,32.57-215.15,67.6-134.65,60.42-294,92.88c-52.31,12-102.15,28.74-151.08,45.46C603.74,766.26,726.22,697.29,847.31,628.12Zm-617,398.08-11.48,10.54q37.45-32.34,78.22-63.35l29.25-1.9a936.28,936.28,0,0,0,104.31-26L473.59,930q48.95-20.62,101.17-38.54,57.5-21.75,117-41.64l58.79-18.18q71.26-27.84,143.67-54.63-60.48,30.74-117.58,63.44Q739.09,869.62,700,898.1,449.15,993.4,181.52,1071.46,204.73,1048.44,230.35,1026.2Z"/><path class="cls-3" d="M404.42,916.57q45.91-18.68,91-37.94Q446.9,961.7,341,1013.84q-67,22.56-131.83,47.53L327.52,1083H1923V0H1746.37c-6.87,3.8-13.76,7.59-20.62,11.43-45,25.12-92.88,48.76-142.17,71.09L1550,96.91Q1587.6,48.46,1625.1,0H0V850.05c10.45-.47,20.91-.88,31.35-1.39l4.66-.2Q17.59,863,0,877.88V1020.4q89.39-18.09,175.85-40.52Q293.38,952,404.42,916.57Zm1299.93,154,96.21-96.35,19.82-11.46c-38.59,37.52-77.7,74.85-116.9,112.16Q1703.9,1072.78,1704.35,1070.62ZM937.09,502.35q-10.71,12-21.4,23.93-5.43-8-10.83-16C915.59,507.61,926.35,505,937.09,502.35ZM673.54,869.16q100.66-6.81,200-18.58l84-8.36C945.66,850.81,933.77,859.38,922,868q-67.79,15.42-137.6,28.22-69.74,14-137.53,30.22l-8.66-26.27Z"/><path class="cls-3" d="M1489.82,1083H1923V847.31c-115.68,69-230.4,138.57-346.56,207.33Q1532.87,1068.56,1489.82,1083Z"/><path class="cls-3" d="M0,1083H486.61l188.91-57.55c3-.08,6-.08,9-.16q42,2.79,71.65-12.72l21.87-13Q850,981.57,920.51,962q-41.47,29.26-82.46,58.76-50.61,21.42-101.51,42.59c-16.07,6.65-32.33,13.17-48.66,19.63h627.47c84.44-48.14,165.05-98.6,246-148.47C1640.06,886,1715.07,835.06,1787,783.09c15-.54,29.91-1.06,44.86-1.65q45.8-1.7,91.17-4.89V717.42q-26,2-52,3.62,26.31-19.83,52-39.86V471.79q-75.7,19.79-151.21,39.82,27.48-22.61,57.65-43.88l39.73-8.57q27-5.6,53.83-11.3v-180L1851,306q-44.55,16.61-89.79,32.59-107.42,36.13-213.82,73.21l37.86-13q-57.81,19.74-114.32,40Q1540.71,359,1605.2,277.85c75.44-92.58,151.5-185,225.68-277.85H1582.06c-4.25,2.09-8.5,4.2-12.79,6.26,1.6-2.07,3.16-4.17,4.75-6.26H1143.63c-2.91,1.4-5.8,2.82-8.72,4.22Q1050.28,15.38,965.86,27c-70.36,9.36-168.67,39-258.28,68.85Q817.14,48.05,926.35,0H649Q367.31,86.28,87.64,174.58,43.6,188.46,0,202.72v74.71c44.85-17.83,90.18-35.29,135.59-52.7Q330.11,157.2,531.44,96.51,305.78,198.83,77.05,299,38.58,315.83,0,332.62v112l80.78-34.28q92.13-43.21,181.06-88.56C376.12,264.74,496.16,211,615,157.12q171.46-43.8,351-75.41c-58.53,26-117.74,51.63-176.28,77.61-164.31,72.89-318.91,153-472.85,232.73l-140.14,72.6Q91.84,513.28,0,557.14V885.46q82.07-36.81,163.46-74.23,38.41-17.72,76.17-35.88-117.52,71.42-237,141.74c-.86.51-1.72,1-2.58,1.57v40c2.88,1.39,5.73,2.81,8.69,4.13C5.79,964.88,2.88,967,0,969.13ZM1629.08,626q14.14-11.21,28.27-22.4,124.47-34.57,250.76-67.1c-4.28,3.15-8.62,6.26-12.9,9.4l-10.69,4.63a93.48,93.48,0,0,0-17.36,7.4l-1.12.53c-59.16,25.33-119,50.13-178.67,75q-67,27.87-136.11,53.83Q1590.25,656.63,1629.08,626ZM503.83,1042.28c8.6-4.59,17.11-9.23,25.73-13.8,3.5-1.7,6.94-3.44,10.42-5.15,2.59,0,5.17,0,7.84-.08,4.94.3,9.9.46,14.85.71Q533.36,1033.22,503.83,1042.28Zm579.53-193.16L965.87,887.8c80.75-48.1,158-97.52,233.5-148q38.67-12.28,77.57-24.33Q1180.48,782.44,1083.36,849.12Zm354.3-246.23q-18.67,6.25-37.14,12.75c-7.47,2.6-14.91,5.25-22.37,7.87q46.06-21.6,91.71-43.5Q1453.74,591.44,1437.66,602.89ZM1160.08,120l48.19-42.57c10.82-9.18,22.32-18.05,34.12-26.77q8.85-3.91,17.66-7.85,73.47-7.89,147.41-14.38l-5.4,6.38A828.15,828.15,0,0,1,1315,112.5c-42.86,16.13-85.94,32.05-129.61,47.77q-51.73,18.63-103,37.56Q1119.57,158.38,1160.08,120Zm-112,320.4,116.47-70.27q190.83-94.91,340.33-211.18,19.65-7.74,14.25-20.67c-3.49-7.75-10.05-14.49-19.33-20.33q27.14-14.65,54.1-29.43l21.53-10.86c37.27-15.86,74.67-31.9,110.91-48.68q-89.74,115.77-183,230.7-67.42,87.18-141.45,172.62-21,32.7-44,64.94c-49.46,20.37-96.89,42.38-143.89,64.5q-40.15,18.66-78.7,38.38-26.92,14.19-51.32,29.73-119.13,36-234.11,76.37-127.68,60.07-280.4,93.08-35.38,9.83-69.37,21c25.95-19,52.09-38,78.14-56.89q66.87-48.39,135-96.21,72-51.56,152.1-99.09Q935.18,503.38,1048.09,440.37ZM291,750.52C391.9,701.24,490.36,650.36,588.61,599.4c111.26-57.71,217.74-118.49,323.87-179.29C800.62,490.65,680.75,556.37,562.84,623.63Q434,692,291,750.52ZM66.56,693.25c-2.61.92-5.16,1.84-7.67,2.74q20.42-15.16,40.81-30.22,66-46.2,135-90.91C315.47,521.42,401.93,471.67,491,422.75q127.49-65.26,260-127.23Q830.25,256,909.52,216.46c9-3.91,17.89-7.93,26.82-11.88-15,16.79-29.72,33.63-44.62,50.32q-12.27,14.36-24.56,28.7-52.12,22-103.94,44.29-33.09,14-66.36,27.82Q634.7,391.55,572.59,427.4,446,499.13,314.32,567.82,193.26,632.29,66.56,693.25Zm166.85,308.12c6.24-.47,12.47-1,18.69-1.74C296.44,997,337.82,984,375,970.93q24.08-8.29,47.68-17c48.37-21.07,95-43,141.74-65.29q57.6-27.39,117.74-52.91c-6.37,4.44-12.86,8.82-19.16,13.28q-10.28,7.39-20.08,15L354.37,985.4q-78.4,25.43-157.83,49.78Q214.54,1018.12,233.41,1001.37Z"/><path class="cls-3" d="M39.29,135.6q113-39.79,223.84-81.43C310.5,38.45,361.57,18.62,408.42,0H0V152.32Q19.74,144,39.29,135.6Zm31-87.74c8-2.87,16-5.7,24-8.56-7.4,3.41-14.88,6.76-22.31,10.14L53.21,53.89Z"/><path class="cls-3" d="M318.58,23.1c17.69-7.54,35.06-15.27,52.3-23.1H107.93L77.63,14.1q-27.94,4.55-57.1,7.6c-3.45.68-6.9,1.31-10.36,2q23-11,46.18-21.83L62.27,0H0V151.94Q166.79,93.79,318.58,23.1Z"/><path class="cls-3" d="M159.22,736.32,160,736q195.28-64.87,376.5-141.23a250.24,250.24,0,0,0,30.11-10.5Q718.4,521.79,857,450.46q162.67-76.83,317.63-158.83,50.52-22.94,100.6-46.17-12.9,11.8-25.75,23.61l-44,36.52-25.36,18.6q-29.24,19-58.45,37.95-81.08,50.43-169.4,96.76c-3.54,2.22-7.18,4.38-10.75,6.58-22.12,11.38-44.06,22.87-65.64,34.6q-108.9,56.55-217,113.49c-8.57,3.81-17.08,7.64-25.76,11.39Q425.34,695,255.26,792.41q-17.14,7.7-21.56,20.05c-6.43,13.36-5.37,22.78,15.7,30.51l12.38,4.53q-18.78,13-37.33,26.19a1223.54,1223.54,0,0,0-106.86,88.76,714,714,0,0,0-84,92.82c-7.15,8.66-6.6,18.69-1.37,27.73H160.05Q341,1025.24,521,966.58q-87.6,40.89-173.5,83-10.56,10.31-10.13,22.35a24.58,24.58,0,0,0,.48,11.1H448.43l226-73.35Q915.73,943.44,1146.29,866c-16,11.2-32.08,22.38-48,33.61q-55.48,23.31-112,45.88Q938,963.82,889.6,982.09q-98.94,36.13-195.87,74c-22.36,8.74-44.31,17.77-66.08,26.94H835.81c7-2.66,13.94-5.3,20.94-7.93q-3.51,2.64-7,5.29c-4.4.86-8.78,1.76-13.16,2.64H1001l7.93-1.85,5.73.21c-.88.55-1.74,1.1-2.62,1.64h225.16q17.1-2.4,33.51-5.89c-3.28,1.94-6.43,3.94-9.68,5.89H1407.8q40.79-21.35,77.59-45.37l94.41-57.35Q1694.19,909.56,1800.86,835,1863,792.88,1923,749.91V449.77l-63.46,22.49q31.82-22.68,63.46-45.42V252.38q-31.76,19.42-63.47,38.88-55.2,16.51-109.57,34.3,14.25-19.5,27.68-39.22c47.16-64.24,96.12-128.06,145.36-191.8V0H1455c-6.93,6.6-13.94,13.16-21.12,19.68-29,24.25-58.67,47.82-89.37,71q-23.6,7.8-47.1,15.7c8.36-9.16,16.7-18.33,25.19-27.45Q1360.71,38.59,1404,0H933c-15.36,4.13-30.78,8.2-46.12,12.35-5.77,1.65-11.51,3.32-17.27,5Q888.7,8.66,907.85,0H570.76Q454.59,33.59,340.3,69.26C224.37,104.49,111.24,142.33,0,181.91v66c124.13-45.46,254.32-86.13,381.72-127.74Q452.25,97,524.22,75.43c-65.43,38.9-130,78.3-194.76,117.52l-40.88,22.44q-41.67,15.06-83.65,29.83Q98.72,277.07,0,315.9V418.13c8.53-2.57,17-5.15,25.68-7.62a773.4,773.4,0,0,0,116-48.49q58.47-27.54,116.93-55.11,45.42-22.26,91-44.43,68.26-26,135.29-53,128.42-51.4,263-97.39,48.5-18.14,97-36.24c-13.1,7.15-26.28,14.25-39.22,21.5-118.89,65.39-234.78,132.23-349.3,200.06q-133.65,83.46-272.54,164.1L11.57,548.68c-3.82,1.69-7.72,3.32-11.57,5v71.12c1.16-.4,2.32-.78,3.48-1.19L0,625.93V807.09q47.15-20.54,93.91-41.35Q126.7,751.12,159.22,736.32ZM754.64,928.43q9.33-4.29,18.66-8.57a142.36,142.36,0,0,0,17.88-1.65Q772.9,923.3,754.64,928.43ZM221.23,996.65c.21-.2.39-.4.6-.59a1216.45,1216.45,0,0,1,104-88.62c17.32-14,35.42-27.6,54.1-41l3.24,0a310.11,310.11,0,0,0,94.36-10.19c43.19-7.87,81.33-20.77,120.44-33.48Q656,802.15,714.85,782.15q59.48-20.86,120.88-39.82,35-8.85,68.82-19,80.34-30.57,162.31-59.6Q1006.41,692.31,947.49,722A1402,1402,0,0,0,813.2,800.1Q522.47,903.56,221.23,996.65ZM966.91,870.46Q891,890.55,815.82,911.34q38.08-22.4,76.25-44.73,45.93-20.21,92.36-40.05,225.48-92.31,446.63-188,37.2-8.76,74.18-17.78-57.93,39.06-115.82,78.09-47.87,32.33-95.29,64.79-69.54,26.37-138.49,53.27Zm347.52,36.61q-111.3,59.53-215.49,123.06l-12.31.85-13.64,2.3c-5.48,1.52-11,3-16.54,4.46,18.26-13.65,36.43-27.35,54.79-41q31.18-22.72,62.6-45.35,164.19-71.5,327.53-143.66c9.66-4.23,19.27-8.49,28.91-12.73Q1420.77,850.06,1314.43,907.07ZM1466.3,597.8c1.42-.65,2.87-1.3,4.29-2Q1575.77,544.3,1681,492.72c16-8,31.92-16.15,47.88-24.23q-62.61,43.38-126.08,86.37Q1534.41,576.22,1466.3,597.8Zm407.18-73.46Q1787.67,566,1700.57,606.9l-79.85,33.27q55.47-38.26,110.25-76.81Q1802.63,544.28,1873.48,524.34ZM1339,337.2q83.31-57.6,166.65-115.19,97.2-86,219.42-161.34c12.69-7.53,16.69-15.8,12.14-24.78,3.89-1.18,7.73-2.38,11.54-3.63q37.62-11.89,74.67-24.32-49,76.77-97.06,153.76-49.74,80-97.93,160.24a594.64,594.64,0,0,1-37.27,59.31q-37.29,14.06-73.64,28.77c-72.69,29.54-144.3,60.13-208.88,95.34L1264,536.2q-91.62,28.88-181.9,59.2-112.5,37.07-221.58,77.39Q820,682.06,780.85,692.9q-69.72,19.32-136.38,41.84Q583.6,754.87,522.9,775.17c-2.18.77-4.43,1.45-6.63,2.2,47.72-28.92,96.82-57.08,145.5-85,92.32-49.9,184.84-99.78,278.5-148.93L1000,518.62q46.67-24.62,92.92-49.46,21.86-13.17,43.7-26.37c7.78-3.88,15.51-7.79,23.32-11.66Q1261.4,390.68,1339,337.2ZM28.6,708.62C42.06,698.28,55.75,688,70,678q70.77-49.93,149.84-95.69,80.2-46.89,166.68-90.06,108.51-53.19,219-105.09,120.84-59,247.43-113.9,53.52-20.92,104.28-43.62Q952.08,235.33,947,241l-14.44,5.93Q809,317.92,683.58,387.76C556,459.37,417.7,525.25,281.77,591.57c-81.9,39.94-165.83,78.5-250.88,116.26Z"/><path class="cls-3" d="M1577,1038.54,1463.64,1083H1923V856.75c-53.87,38.58-107.38,77.33-161.42,115.76Q1667.5,1003.77,1577,1038.54Z"/><path class="cls-3" d="M0,101.76v85q48.14-22.14,96.27-44.28c10.93-5,22-10,33-15,24.71-9.14,49.27-18.44,73.5-28L314.15,55.66Q386.15,26.78,460.51,0H198.84c-62,32.32-123.27,65-185.09,97.39C9.15,98.84,4.56,100.28,0,101.76Z"/><path class="cls-3" d="M1923,1083v-10.84L1890,1083Z"/><path class="cls-3" d="M325.73,821Q248,858.3,170.84,895.83q-17.25,5.43-14.31,16.64Q158.36,926,169.29,938c14.46,15.15,45.93,10.12,67.83,3.4l279.32-85.71Q762.59,797.29,975.57,708q-41.1,28.76-82,57.62C777.53,815.07,655.1,859.58,535.22,905.9q-99.47,39-192.18,83A1586.86,1586.86,0,0,0,172,1083H376Q434,1050.78,497,1021.53c4.2-1.95,8.48-3.85,12.7-5.78l60.2-11.56q-20.79,15.55-41.74,31-32.32,23.83-64.23,47.77H756.68c74.11-50.53,150.4-100,226.92-149.38q23.37-3.18,46.82-6.19l59.55-5.6q-105.62,56.91-207.54,115.93L786,1083h473l48-22.44a87.48,87.48,0,0,0,7.67,7.24c.11.1.23.17.35.27-8.71,4.85-17.14,9.85-25.43,14.93H1512a1957.53,1957.53,0,0,0,193.94-79.28q-52.73,38.82-101.29,79.28H1731.4c6.1-5.16,12.17-10.31,18.35-15.45,52.76-43.76,112.4-85,173.25-125.34V617.3q-70.95,47.3-141,95l-109.52,73L1586,813.7q-187.08,65.85-364.58,139.76Q1078.76,1013.21,938,1074.33l113.44-53.9q132.42-68.79,259.26-140.88c206.23-114.71,394.86-238.78,571.45-368.27,13.6,0,27.26-.14,40.9-.3V226.16q-137.45,54.09-275,108.06a1867.75,1867.75,0,0,1,188.4-114.8q43-11.55,86.65-22.34V43q-47.49,27.43-95,54.87l-81,18.8q-63.87,17.77-126.68,36.75c-16.4,4.86-32.55,10-48.6,15.16q49.7-63.94,99.85-127.8,16-20.39,32-40.74H1511.86c-13.1,19.75-26.25,39.49-39.28,59.26q-54.42,84.9-106.22,170.35c-3.48,6.27-7.23,12.45-11.15,18.59-74.1,29.75-146.42,62.41-211,98.23l-21.64,12c-8.7,6.24-17.54,12.41-26.33,18.6q-214.83,68.33-421,144.79Q604,538,537.37,559.56q-64.87,20.82-128.89,42.49-43.68,16.37-89.32,30.89c.79-.87,1.57-1.74,2.37-2.61q10.89-6.89,21.88-13.73L446.47,561q125-60.74,246.9-123.45,108.81-58.77,209.74-121.92c84.17-44.76,167.27-90.22,251.37-134.88Q1257.72,133.84,1334,74a723.91,723.91,0,0,1,84-74H617.93C495.41,64.83,377.48,132.21,259.73,199.93L109,286.38Q59.83,325.27,0,357.89v91.8q20.06-12.24,40.65-24.21C157.92,354,294.24,293.06,427.52,231.7l133.37-61.4Q688.72,112.22,810.1,49.87c-8.24,9.33-16.39,18.69-24.77,28-2.36,2.67-4.8,5.3-7.23,7.93-4.33,1.85-8.7,3.68-13,5.52L746.4,100Q625.88,170.47,502.27,239.18C376.42,310,240.77,375.55,106.92,441.38Q54,467.41,0,492.64v90.48q19.18-8.89,38.33-17.82,250.53-83.59,472-190.37,104-43.41,204.83-89.18c57.51-26.2,109.34-57.13,159.84-87.51q30.51-18.78,58.51-38.75,30.93-10.45,63-20c-3.67,3.13-7.44,6.23-11.08,9.38q-60,51.81-123.12,102.39l18-13.54Q847,263.53,810.42,287.75q-60.58,30.45-120.29,61.48-97.35,48.15-191.9,98-90.28,48.11-178.43,97.47c-17.69,9.79-34.92,19.8-52,29.9q-78.27,38.19-158.57,75.09-21.69,7-23.55,21.27c-1.67,6.72.47,12.64,6.27,17.76q-27,18.79-53.55,37.81C25.25,736.4,12.52,746.39,0,756.47V920l262.56-80.08Q294.33,830.64,325.73,821ZM1444,932.81l2.4-.88q-31,18.54-62.77,36.69c-36,11.62-72.83,22.39-109.09,33.73Q1358.41,966.92,1444,932.81ZM748.49,985.42q-14.43,9.08-28.66,18.24,24.34-18.33,48.6-36.68l12.32-2.15C770,971.69,759.17,978.52,748.49,985.42Zm254.14-156.26q-46.57,27.24-92.17,55-20.85,2.91-41.63,6.08,29.92-22.75,60.28-45.31c64.5-26.2,127.53-53.75,190.14-81.52Q1060.36,796,1002.63,829.16ZM1862.2,306.38q-33.14,25.26-66.22,50.54-89.09,39-180.28,76.43l-160.11,66.49q-50.07,21.39-101,42.05c26.66-18.49,53.21-37,79.92-55.47L1564.93,396c10.78-8.6,21.82-17.06,33-25.47C1687,348.94,1774.71,327.66,1862.2,306.38Zm-363.47-44.85c36.92-13.68,74.87-26.46,113.41-38.69q-18,11-35.8,22.12-39.48,8.5-78.5,17.58C1498.13,262.2,1498.43,261.87,1498.73,261.53Zm-186.3,166.85q90.77-36.53,179-74.92l-17.19,12.11q-32,21.8-63.9,43.61l-170.63,49.5Q1275.91,443.42,1312.43,428.38ZM1322.7,469l-108.23,73.88q-83.88,57.24-166.82,114.9c-4,1.41-8.07,2.8-12.1,4.2L753.18,725.62q-79.65,21.51-158.59,43.78c6.06-2.75,12.09-5.52,18.16-8.27,2.86-.55,5.71-1.14,8.56-1.82q29.66-4.86,52-16.75l51.4-30.92q45.46-19.73,91.44-39l229.38-90.67Q1181.95,523.66,1322.7,469ZM56.92,829.27C97.23,787.41,148.58,748.91,199.49,711c27,.84,53.31.17,80.92-4l37.47-5.59a623.74,623.74,0,0,0,80.85-21.8c31.12-9.5,60.24-21.35,89.11-33q59.16-20.34,118.8-40.24,31.13-9.81,62.26-19.59a1716,1716,0,0,0,203.37-64.21A1132,1132,0,0,0,749,596.09a1052.27,1052.27,0,0,0-111.65,56.47L531.87,688.82Q289.92,768.41,43.13,843C47.69,838.44,52.19,833.82,56.92,829.27Z"/><path class="cls-3" d="M50.65,14.92,97.38,0H0V32Z"/><path class="cls-3" d="M316.41,888.8A410.52,410.52,0,0,0,373,893.12q-165.85,73-325,150.66-18.69,14.49,4.94,26.4,46.65,14,100.13,7.83,94.49-2.7,187.83-11.35a263.91,263.91,0,0,0,46-4.19l-1,.39q-25.18,9.9-49.9,20.14H1813.11c2-3.19,4-6.36,6-9.55,18-28.8,35.13-57.79,52-86.82q26-9.45,51.88-18.93V421.8l-7.34,2.21,4.38-4.11,3-1.26V23.25c-3.83,2-7.66,4-11.5,5.94-45.54,23.43-91,45.89-139.32,67.48Q1605.54,184.72,1438,272.2q-66.33,34.77-134,68.65l-7.76,3.46q63.42-79.51,127.1-159Q1491,101.5,1558.26,17.53c4.67-5.83,9.21-11.69,13.87-17.53H1059.34A1211.82,1211.82,0,0,1,943,78.59c-20.36,13-41.85,25.48-64.12,37.51,15.93-17.7,31.86-35.36,48.22-52.87q19.2-19.2,38.4-38.41L992.8,0H629l-37,16.61c-4.26,1-8.47,2.06-12.75,3.05q-85,24.92-167.94,52.15C289.83,109.76,171.32,150,53.77,191.5,156.4,145.69,260.25,100.69,363.43,55.31Q426.4,27.62,489.5,0H241.26Q190.13,24.54,139.19,49.19q19.06-15.61,37.15-31.64C191,11.62,205.87,5.83,220.64,0H0V1006.48q90-23.55,174.17-53.31Q246.44,921.78,316.41,888.8Zm1352.68-21.11-18,13.11q-48.81,30.76-103.2,58.35c-2.79,1.5-5.68,2.93-8.5,4.41l-3.57,1.24Q1602.74,906.42,1669.09,867.69Zm-317.29,55,21.1-9.43-58.06,34.47Q1333.31,935.2,1351.8,922.7ZM710.46,937.23c-73.59,30.21-149.35,58.83-224.92,87.49l56.92-25.57q105.57-50.24,191.71-112c3.06-1.59,6.09-3.19,9.16-4.77,14.65-6.12,28.59-12.54,42-19.19,7.82-1,15.67-1.93,23.48-3,3.57-.21,7-.53,10.55-.82Q764.68,898.22,710.46,937.23Zm454.83-763.42C1239,122.88,1305.14,68.86,1366.48,13.07c-7.26,9.77-14.46,19.56-21.75,29.33Q1214.35,218.17,1086.9,394.58q-35.39,44.71-76.29,87.74-171.2,76.8-367,132.22l-15.83,8.18q-45.62,24.57-88.34,50.63-48.08,11.71-93.93,26.17Q461.27,684.6,477,669.64c61-58,118.46-117.15,173.78-176.94C831.15,391.15,1003.88,285.3,1165.29,173.81ZM449.37,225.62l127.94-70.48q35.25-14.32,69.73-29.22c-30.75,34.43-60.73,69.11-92.22,103.24l-41.6,39.69c-8.24,6.84-16.73,13.56-25.28,20.26-13.45,5.05-26.87,10.12-40.46,15-60.44,23-99.24,38.33-126.64,52C365,313.05,407.55,269.45,449.37,225.62Zm-223,219-9.65,13.21c-4.15,2.2-8.28,4.42-12.47,6.62Z"/><path class="cls-3" d="M218.79,87.75c52.66-23.35,107.38-50.65,161.63-79C388,5.83,395.45,2.9,403,0H0V184.44C76.37,152.48,150.2,118.17,218.79,87.75Z"/><path class="cls-3" d="M390,696.1q70.4-23.16,131.19-54.24,26.7-13.12,53.44-26.28,103.62-49.91,202.66-102.76c45.28-23.55,90.5-48.24,132.35-73.92q30.64-17.67,60.64-35.73,116.64-51.46,229.84-105.36l2.54-1.2c-23.67,21.73-46.64,43.74-69.94,65.46L1158,339.8q-33,30.52-70.54,59.18-52.77,36.12-109.66,70.21Q873.15,529.51,760,584.67q-144.86,70.67-288.63,142Q339.79,794.11,203,858.08,186,868.61,186.5,882.91c1,9.38,14.13,16.46,29.71,21.69-4.06,2.86-8.15,5.7-12.18,8.57a1290.51,1290.51,0,0,0-106.8,87.74c-30.34,26.36-55.15,54-79.18,82.09h275q65.81-19.65,128.24-42.6c3.26-1.28,6.56-2.55,9.82-3.82q-48.49,23-96.34,46.42h243l22.54-8.34q240.52-72.12,484.1-140.85-11.09,7.8-22.11,15.61-101.7,43.07-205.84,84.29-48.94,18.36-97.93,36.69c-11.21,4.15-22.32,8.38-33.45,12.6h711.24q20.94-13.55,41.53-27.29c81.44-52.6,160.66-106.06,239.68-159.86Q1823.54,823.69,1923,749V236.55l-66.16,38.58q-91.92,54.24-183.75,108.56,51.59-69.53,105-138.57Q1850.35,150.61,1923,56.2V0h-219l-1.75,1q-24.33,9.51-48.68,18.84c6.77-6.54,13.29-13.16,19.67-19.82H996.49C960.4,17.91,924.25,35.76,888.4,53.73Q823.92,68.4,761.76,86.25,813.93,62.31,866,38.39,907.8,19.16,949.7,0H666.77c-5.93,3.33-11.92,6.64-17.85,10q-66.25,26-138,47.57Q329.16,113.66,147.76,170.12,72.76,193.43,0,218.57v83.2c120.4-48.09,248.71-89.92,376.15-131.68C317,206.6,258.52,243.51,200.05,280.37l-4.41,2.56Q132.2,305.46,67.08,326.41C44.64,335,22.35,343.7,0,352.36V463.84q57.26-27.76,112-57.13,37.58-15.13,75.36-30.12,101.62-35.4,198.33-75,77.06-31.51,155.4-62Q421,305.76,304.71,374.11L164,456.52Q85.47,503.92,0,547v97.65c7.69-2.42,15.31-4.93,22.93-7.44C15.21,642,7.6,646.82,0,651.67V873Q139.11,812.23,275.93,749.7,333.58,723.32,390,696.1ZM748.08,981.34c11.45-5.3,22.8-10.66,34.3-15.93q11.82-.15,23.4-.95Q777,973,748.08,981.34ZM870.77,796.69c-20,12.42-39.58,25-59,37.7Q558.38,932.5,288,1013.38c.58-.56,1.14-1.13,1.73-1.69q42.06-38.6,89.49-75.16c4.24-3.26,8.57-6.47,12.84-9.7,26.71-1.65,53.28-5.39,78.77-8.87a1001.45,1001.45,0,0,0,100.47-27.78c53.8-16.39,104.27-37.11,155.32-56q57.87-22.39,119.25-41.54l60.58-17.89C894.4,782,882.48,789.27,870.77,796.69Zm410,1.51q-107.16,41.26-220.3,77.37l-154,54q57-33.51,113.94-67.08,101.46-41.26,206.45-79.75,74.15-24.57,148.23-49.19Q1327.9,765.88,1280.74,798.2Zm267-183.22-104.56,28.28q-63.92,18.53-126.48,38.29c1.81-1.21,3.6-2.43,5.4-3.64q14.58-5.49,28.66-11.41,14.39-5.61,28.75-11.2a414.34,414.34,0,0,0,48.9-28.68Q1499.69,592,1570.22,557q51.08-14.31,102.58-28.11Q1610.33,571.92,1547.78,615Zm99.93-497.18c13.87-7.9,18.37-16.61,13.61-26.12L1684.09,83q30.59-13.11,60.91-26.43-5,7.83-10,15.65-52.18,81.38-103.28,163c-45.86,72.81-89.43,146.08-133.79,219.2-31.55,12.85-62.59,26.09-93.25,39.47q-33.26,14.48-65.2,29.89c-40.5,19.06-69.38,37.86-101,59.49L1034,647.72q-136,58.66-293.22,94.17c-50,12.39-97.73,28.57-144.76,44.84,67-42,137-82.61,206.4-123.19,20.6-12,41.48-23.92,62.46-35.75q61.54-30.76,117.46-65c3.16-2,6.21-4,9.35-5.94,40.73-22.89,81.05-46,120.06-69.77q109.68-59.36,192.69-131.28c22.89-17.12,38.2-36.41,46.22-57.81l.67-.47Q1520.42,219,1647.71,117.8ZM1290.8,89.26C1301,79,1311.62,69,1322.68,59.24q14.35-.78,28.75-1.42l-5.06,4.81q-19.32,16.56-38.68,33.11c-26.67,20.74-53.79,41.05-81.6,61C1247.23,134.17,1268.65,111.63,1290.8,89.26ZM721,290.41c69.15-35.13,140.21-68.84,212.37-101.74Q880.58,220.21,815,246.6q-67,32.76-135.21,64.71C693.57,304.36,707.2,297.34,721,290.41ZM184.42,663.07c76.39-52.35,165.15-99,251.4-146,105.23-57.24,218-110.24,328.43-164.17q44.41-21.81,88.3-44-16.11,18.15-33.17,36-79.12,44-158.67,87.82c-167.22,92.38-343.33,179.41-524.55,262.9C151.93,684.71,167.93,673.78,184.42,663.07Z"/><path class="cls-3" d="M1592.61,1067.53c-14.33,5.09-28.54,10.28-42.74,15.47H1923V837.32c-69,47.44-136.84,95.44-205.18,143Q1655.23,1023.95,1592.61,1067.53Z"/><path class="cls-3" d="M287.77,1013.44l1.31-1.19-1.29,1.18Z"/><path class="cls-3" d="M0,1027.87V1083H309.05q24.87-5.09,49.4-10.7c-7.89,3.53-15.68,7.14-23.53,10.7H1923V109.55c-27.37,15.6-54.63,31.27-82.21,46.78-42.41,23.85-85.17,46.92-130,69.33q-79.56,43.92-153.78,90.6c9.59-12.68,19.24-25.33,28.8-38,63.6-84,128.1-167.72,191.71-251.68,5.68-8.93,11.69-17.77,17.87-26.56H0V581.57c7.32-5.38,14.49-10.86,21.44-16.46l24.1-11c48.81-22.4,98.2-44.44,147.73-66.37l-71,50.18Q61.08,575.94,0,614V966.91a307.31,307.31,0,0,0,69.07-10.09c9.1-4.14,18.11-8.32,27.21-12.47q-12.84,10.08-25.41,20.28A766.8,766.8,0,0,0,0,1027.87ZM756.56,737q30.59-28.77,61.21-57.52Q888.44,610.66,920,533c133.84-73.25,260.34-150.63,386.49-228.09q24.57-13.64,49-27.36c14.42-8.4,28.7-16.88,43-25.34q-37.2,59.23-73.81,118.59Q1272.44,460,1216.15,548.38c-4.6,5.77-9.28,11.5-13.88,17.26Q1122.15,622.06,1039,677.06q-141,35.67-276,78.52l-37.39,7.6Q741.21,750.1,756.56,737ZM600.7,345.62a81.9,81.9,0,0,0,1.68-21.5q12.3-3.89,24.73-7.63Q614.11,331.13,600.7,345.62Zm-314-250c4.15-1,8.25-2,12.39-3q-20.06,11.73-40,23.55A103.59,103.59,0,0,0,256,105.46C266.2,102.16,276.41,98.84,286.66,95.58ZM176.49,296q65.67-33.56,133.12-66c90.91-44.59,183.59-88,276.06-131.53,9-4.25,18.11-8.44,27.14-12.67Q583,100.47,553.35,115.27c-56.06,28.06-111.1,56.85-165.62,86l-18.05,3.32c.83,1.67,1.65,3.35,2.48,5Q320.86,237.05,270,264.79,223.09,280.24,176.49,296Z"/><path class="cls-3" d="M48.89,15.5,83.61,0H0V42Z"/><path class="cls-3" d="M323.79,794.15a343.11,343.11,0,0,0,94-8.31l22.1-8.65Q253.22,865.32,71.83,956.93,43,966.31,47.71,984.28q12.56,16.71,45.74,16.1a1093.67,1093.67,0,0,0,134.67-15.44A1001.93,1001.93,0,0,0,357,958l137.34-67.73q117.27-61.68,248.85-111c6.91-1.39,13.86-2.71,20.76-4.14q61.38-7.47,103.39-32.69c5.87-3.8,11.65-7.63,17.49-11.42q18.54-5.71,37.34-11.22Q821.91,792.27,723.89,865.66c-11.16,4.64-22.27,9.31-33.46,13.93-95.58,39.35-195.61,75.5-293,113.36q-99.39,39.13-191.87,83.43c-4.55,2.18-9,4.41-13.52,6.62H915.52c79.44-56,161-111.2,242-166.46q50.75-35.06,101.46-70.13c1-.69,2-1.37,3-2.06,109-49.37,218.78-98.24,327.85-147.57q94.15-42.6,187.33-85.81c-1.35.82-2.72,1.63-4.06,2.45C1621.08,704.11,1473.94,797.57,1323,888.9q-84.23,48.51-168.45,97-72.94,41.21-149.8,79.81Q985.33,1074.36,966,1083h957v-71.18c-18.31,8.86-37.19,17.29-56.79,25.15-.25-4.73-5.26-9.18-15.11-13.34a330.09,330.09,0,0,0-74.63-9.16c14-22.12,27.29-44.39,40.15-66.75L1847,922.25q38.13-11.26,76-22.81V0h-68.23c-7.44,3.54-14.83,7.09-22.41,10.59q-164.61,87.6-329.25,175.17c-3.45,1.83-6.95,3.64-10.42,5.48q-44.89,19.62-90,39-43.08,19.47-86.4,38.78c18.13-22.4,36-44.87,53.42-67.46C1423.18,134.34,1477.16,67.2,1530.93,0H1321.16c-55.38,75.76-111,151.47-165.33,227.48A1766.81,1766.81,0,0,1,1019.3,407.2c-7.11,7.82-14.29,15.61-21.43,23.42q-106.68,38.52-213.35,77.06-126,61.82-278.22,96.83c-18.39,4.71-36.41,10.08-54.18,15.81q20.5-40.12,41-80.23,84.78-86.54,198.54-162-12.46,9.18-24.91,18.36,36.09-24.45,72.38-48.82,116.63-67,226.28-137.73,91.77-79,220-138.91,62.41-34.17,120.11-71H978c-20.67,12.65-41.86,25-63.81,37-5.74,3.13-11.62,6.15-17.41,9.24Q918,23.06,939.84,0H358q-30.86,10.68-61.45,21.6Q321.32,10.79,346.14,0H96.75Q48.12,23.24,0,46.78v660q48.63-23.75,96.84-47.72-32.52,21.43-64.41,43.19c-10.85,4.12-21.62,8.3-32.43,12.44V922.1c12.45-4.55,24.87-9.14,37.17-13.85Q184.33,854.33,323.79,794.15ZM1588.26,1023.8q-29.73,2-59.38,4.31,6.72-5.43,12.64-11.12,16.14-10.66,32.29-21.29,33.07-6.57,65-14.72Q1613.5,1002.37,1588.26,1023.8Zm170.72-781q29.48-5,58.92-10-16.34,16.71-32.55,33.42c-1.62.42-3.26.82-4.88,1.26q-41.12,11.65-82,23.58Q1728.36,266.78,1759,242.81Zm-319.59,98.85q10.13-3.36,20.26-6.69-36.21,25.54-72.24,51.18l-14.53,4.65Q1406.11,366.22,1439.39,341.66Zm-215.06,159c2-.75,4-1.51,6.07-2.25q-48.33,34.74-96.6,69.49c-2.62.94-5.26,1.86-7.89,2.8Q1175.89,536,1224.33,500.68ZM83.91,431.55q115.2-91,237.06-179.18l32.17-20.76q87-47,176.37-92.52,44.37-22.62,87.48-46l-11.7,13.31a1074.66,1074.66,0,0,1-86.37,88.84q-36.87,29.13-76.81,56.53L333.84,304Q203.25,364.26,83.91,431.55Z"/><path class="cls-3" d="M1572.35,398.48l-3.48,1.42.86-.73C1570.6,398.93,1571.48,398.71,1572.35,398.48Z"/><path class="cls-3" d="M200.86,0H0V82C67.78,55.43,134.44,27.84,200.86,0Z"/><path class="cls-3" d="M1683.86,929q-60.69,21.45-120.17,44.1l-172.13,68q-50.5,20.84-100.72,41.89h165.68l21.89-8.92c-4.77,3-9.65,6-14.47,8.92h419.15c4.66-2.15,9.37-4.28,14-6.46-3,2.14-6,4.31-9,6.46H1923V748.26c-74.78,55.07-147.27,111.22-220.4,166.81Q1693.24,922,1683.86,929Z"/><path class="cls-3" d="M120,682.09Q276.11,627,430.89,570.64l71-21.75a488.83,488.83,0,0,0,69.28-29.38c137.72-62.19,269.26-129.07,394.13-199.44,5.66-3.42,11.25-6.88,16.83-10.34q33.49-18.42,66.64-37.06,69.63-29.51,138-59.94-36.92,37.64-72.91,75.53a285,285,0,0,1-37,35.36L1027.66,355c-19.84,8.84-39.9,17.54-60.37,26Q858.5,437.06,751.13,494.11L655.7,542.72q-35.87,18.27-70.92,37Q387,638.58,232.5,730.52q-16.92,8.18-19.56,20.9-5.56,12.42,5.08,23.5l24.77,9.63q-50.55,35.36-96.22,72.81C91.84,900.22,51.08,947.31,11.72,995.05c-9,11,.16,26.36,11.12,35.65,18.88,16,60.42,6.21,83.55-1q192.75-59.12,383.67-120c-55.19,26.18-110,52.62-164.86,78.85l-5.39,9.54a42,42,0,0,0,3.36,26.49q3.21,10.83,21.83,12.93a125.67,125.67,0,0,0,38.72-1.58l283.09-89.09Q889.1,886.66,1104.52,819q-11.7,8.28-23.38,16.57-11.66,5.05-23.32,10.11c-123.61,53.72-258.24,99.49-387.1,149q-99.72,39-191.76,83.69c-3.13,1.52-6.19,3.08-9.29,4.62H735.14l11.35-2.42c-1.1.8-2.18,1.61-3.26,2.42h147.4q18.17-13.56,36.27-27.13l10.56-1c-14.67,9.32-29.09,18.75-43.58,28.16h151.64q34.38-22.43,69.46-44.44,56.32-6,111.66-15-50.23,28.83-97.09,59.41h142.84q38.27-19.14,75.25-39.08c74.68-43.73,142.34-84.89,214.39-130q188-117.74,361-243.58V363.54q-27.45,11-55.11,21.89a491.93,491.93,0,0,1,51.55-41.14l3.56-.92V151.58q-43.95,27.91-87.34,56.1l-70.25,45.57q-23.87,7.74-47.57,15.64,51.6-67.69,103-135.43Q1871.88,66.87,1923,.34V0H1719.58Q1659,100.6,1601.21,201.72,1578.62,243,1556,284.27A466.47,466.47,0,0,1,1529.69,335c-26,10.15-51.58,20.63-77.26,31.25-57.88,23.93-114.46,50.41-166.18,78.52q-20.13,13.86-40.23,27.75-205.14,64.59-402.2,136.91L772.53,627q-42.28,11.68-83.17,24.85c-65.64,21-130.48,42.85-196.17,63.82l5.58-3.51q70.68-42.33,144.41-82.94,59.45-32.19,120.09-63.61l4.33-1.45Q820.79,543.92,874,523.63q98.12-40.11,178.86-91.24,34.05-23.91,67.92-47.9l33.83-15.28q203.1-87.85,318.32-217.27Q1575,73.82,1695.6,4.5a65,65,0,0,0,8.78-4.5H342.88c-5.69,1.77-11.41,3.5-17.07,5.27Q171.45,54.85,18.21,105.5C12.1,107.57,6.09,109.71,0,111.8v67C117.76,136.64,240.13,98.22,360.24,59q18.4-5.69,36.89-11.28Q357.4,72.48,318.05,97.49q-63.46,41.37-126,83.21l-2.44.86Q91.81,211,0,246V359.83q63.61-27.56,123.16-58.14Q215,255,308.06,209q84.46-31.51,167.12-64.56,94.56-36.36,191-71Q599.65,111.13,533.37,149C400.87,224.49,279.69,307.23,155,386.79,104.89,418.79,53.74,447,0,473.7V735.62q40.72-17.88,81.18-36C94.16,693.82,107,687.94,120,682.09Zm1172.4,164.14q-118.66,63.51-229.46,131.46l-15.76,1.22c-7.35.93-14.68,1.93-22,2.88q58.3-43.56,118-86.49l7-2.87q171.59-74.65,342.16-150.09l2.2-1Q1392.16,793,1292.37,846.23Zm477.45-364.08c3-1,6-2,9-3q-53.61,27-107.57,53.83c-10.43,5.34-21,10.59-31.57,15.82Q1674.4,525,1709,501.1Zm-42.11-88.94,3-.78q-49.47,34.4-99.29,68.62c-5.64,3.9-11.32,7.78-17,11.68q-70,22.44-139.4,45.44Q1603.45,457,1727.71,393.21ZM1451.29,581.37l5.74-1.79c-56.37,37.83-113,75.56-169.24,113.42Q1113.13,752,937.3,809.91q-95.43,25.79-190,52.54c4.6-2.1,9.15-4.24,13.77-6.34l1.52-.67A118.65,118.65,0,0,0,799,846l41.58-24.48L967,766.38Q1197.62,664.19,1451.29,581.37ZM534.08,774.48c78.74-25.73,155.9-53,234.15-79.23L753,700.1Q815.32,679.25,881.81,663q67.88-25.43,136.82-49.83-36.51,18.55-71.45,38.15-98.71,45.75-178.51,101.32c-185.08,66-378.2,124.94-571.23,183.24,17.32-17,35.57-33.67,54.93-50,32.24-29,68.66-56.54,107.08-83.19q29.43-.39,58.7-2.1C457.41,793.32,498,786.28,534.08,774.48ZM938.23,96.57l-.9,1.07q-32.37,15.74-65.46,31ZM4.54,647.25c57.11-45.91,126.77-87,194.26-127.81q83.94-47.7,173.59-91.93l104.49-50.09q113.37-54.54,228.36-108,64.92-25.17,127.74-51.9-11.79,13-23.8,25.92-73.89,41.9-148.37,83.46c-127.53,71.57-266.07,137.36-402,203.61-80.32,39.14-162.61,76.94-246,114C10.08,645.4,7.28,646.3,4.54,647.25Z"/></g></g></g></g></svg>