<svg xmlns="http://www.w3.org/2000/svg" xmlns:xlink="http://www.w3.org/1999/xlink" viewBox="0 0 523.9 318.2"><defs><style>.cls-1{isolation:isolate;}.cls-2{fill:#fff;}.cls-3,.cls-4{opacity:0.3;}.cls-3{fill:url(#linear-gradient);}.cls-4{fill:url(#linear-gradient-2);}.cls-5{fill:url(#linear-gradient-3);}.cls-6{fill:url(#linear-gradient-4);}.cls-7{fill:url(#linear-gradient-5);}.cls-8{fill:url(#linear-gradient-6);}.cls-9{fill:url(#linear-gradient-7);}.cls-10{fill:url(#linear-gradient-8);}.cls-11{fill:url(#linear-gradient-9);}.cls-12{fill:url(#linear-gradient-10);}.cls-13{fill:url(#linear-gradient-11);}.cls-14{fill:url(#linear-gradient-12);}.cls-15{opacity:0.6;}.cls-15,.cls-16,.cls-17{mix-blend-mode:multiply;}.cls-16{fill:url(#linear-gradient-13);}.cls-18{fill:url(#linear-gradient-14);}.cls-19{fill:url(#linear-gradient-15);}.cls-20{fill:#241d1e;}</style><linearGradient id="linear-gradient" x1="526.08" y1="83.43" x2="33.6" y2="306.66" gradientUnits="userSpaceOnUse"><stop offset="0" stop-color="#f49723"/><stop offset="1" stop-color="#e62635"/></linearGradient><linearGradient id="linear-gradient-2" x1="500.14" y1="26.22" x2="7.67" y2="249.44" xlink:href="#linear-gradient"/><linearGradient id="linear-gradient-3" x1="519.28" y1="68.44" x2="26.8" y2="291.66" xlink:href="#linear-gradient"/><linearGradient id="linear-gradient-4" x1="514.83" y1="58.64" x2="22.36" y2="281.86" xlink:href="#linear-gradient"/><linearGradient id="linear-gradient-5" x1="518.87" y1="67.5" x2="26.38" y2="290.74" xlink:href="#linear-gradient"/><linearGradient id="linear-gradient-6" x1="539.12" y1="112.23" x2="46.66" y2="335.45" xlink:href="#linear-gradient"/><linearGradient id="linear-gradient-7" x1="504.08" y1="34.91" x2="11.61" y2="258.13" xlink:href="#linear-gradient"/><linearGradient id="linear-gradient-8" x1="539.12" y1="112.23" x2="46.66" y2="335.45" xlink:href="#linear-gradient"/><linearGradient id="linear-gradient-9" x1="541.66" y1="117.8" x2="49.18" y2="341.03" xlink:href="#linear-gradient"/><linearGradient id="linear-gradient-10" x1="518.77" y1="67.3" x2="26.29" y2="290.53" xlink:href="#linear-gradient"/><linearGradient id="linear-gradient-11" x1="504.58" y1="36.01" x2="12.11" y2="259.23" xlink:href="#linear-gradient"/><linearGradient id="linear-gradient-12" x1="512.41" y1="53.3" x2="19.94" y2="276.52" xlink:href="#linear-gradient"/><linearGradient id="linear-gradient-13" x1="487.71" y1="-1.19" x2="-4.75" y2="222.03" xlink:href="#linear-gradient"/><linearGradient id="linear-gradient-14" x1="510.74" y1="49.6" x2="18.27" y2="272.83" xlink:href="#linear-gradient"/><linearGradient id="linear-gradient-15" x1="539.68" y1="113.45" x2="47.21" y2="336.67" xlink:href="#linear-gradient"/></defs><title>Fichier 1</title><g class="cls-1"><g id="Calque_2" data-name="Calque 2"><g id="Capa_1" data-name="Capa 1"><path class="cls-2" d="M522.71,63a8.5,8.5,0,0,0-7.31-4.17c-.22,0-.44,0-.65,0L496,60.24,484.12,45.6a8.51,8.51,0,0,0-14.88,3.34l-4.43,18.31L447.23,74a8.5,8.5,0,0,0-1.41,15.19l16,9.86,1,18.82a8.49,8.49,0,0,0,5.12,7.37,8.65,8.65,0,0,0,3.37.69,8.46,8.46,0,0,0,5.51-2l14.34-12.21,18.19,4.9a8.77,8.77,0,0,0,2.21.29,8.5,8.5,0,0,0,7.86-11.75L512.24,87.7l10.28-15.77A8.5,8.5,0,0,0,522.71,63Z"/><path class="cls-2" d="M343.34,4.22A126.22,126.22,0,0,0,311.1,0c-52,0-97,32.84-109.41,79.85-7.42,28-2.76,57.41,13.1,82.9-3.75-.71-8.16-1.4-13.27-2.08a369.51,369.51,0,0,0-44.63-3.29c-10.58,0-26.56,0-28.62,13-.46,3-.18,7.44,3.8,12.11S146,192.93,155.7,197.83c-30.44,16.5-50.49,29-60.92,38l-2,0c-27.26,0-30-9.93-32.86-20.44-1.81-6.6-4.84-17.66-17-19a25.59,25.59,0,0,0-2.63-.14c-10.19,0-20,6.26-25.75,16.33a36.78,36.78,0,0,0-4.7,15.53C2.45,233.8-1.08,243,.29,253.71c3,23.68,29.39,52.58,62.36,56.2a132.65,132.65,0,0,0,14.24.77A135.26,135.26,0,0,0,148.71,290c-1.92,5.9-2.85,11.47-1.93,15.86a15.52,15.52,0,0,0,8.9,11.22A13,13,0,0,0,161,318.2h0c9.94,0,22.73-8.8,85.56-58.79,9.1-7.24,18.49-14.71,27.46-21.75,12.93-1.15,39.49-4.38,64.69-9.14,46.89-8.86,57.32-16.8,61.17-22.74a15.12,15.12,0,0,0,1.64-13.48,14.55,14.55,0,0,0-1.78-3.45A102.4,102.4,0,0,0,429.07,140c7.49-28.31,2.61-58.08-13.74-83.81C399.11,30.67,373.55,12.21,343.34,4.22Z"/><path class="cls-2" d="M355.94,204.77l22.32-14,20.63-19.09,16.3-24.93,4.69-33.36L416,86,398.51,55.52,374.92,31.36,338.29,14.87l-30.68-2.59-33.95,5.84L254.49,28.86,231.28,47.08l-15.72,30.3-6.33,35.48,8.14,27.71s11.78,25.32,12.76,25.32,3.07,6.23,3.07,6.23l1.34,10.35-3.43,14.31-12.42,10.69-15.6,4-10.74,1.68-11.59-7.56L177,200.69l-21.45,11.58.51,11.54,11.43,20.37L182.63,258l22.1,6.89,12.94,1.66,78.47-60.29Z"/><path class="cls-3" d="M175.87,201.37l-21,10.78s1.48,16,1.87,16.44,13.89,20.39,14.39,20.69,13,10.79,14.09,10.88,23.41,6.38,23.41,6.38L220.74,265l74-56.29-4.91-4.79-32.22-15.41-20.41-17.22-3.95,14.12-7.67,14.86-7.29,6-13.8,4.49-11.13.62-10.76-5.76Z"/><polygon class="cls-4" points="261.08 185.36 231.11 165.89 215.45 137.03 212.23 125.67 212.23 77.48 231.11 47.95 255.01 29.54 278.35 16.12 314.69 12.28 351.99 18.8 379.67 34.14 393.89 46.42 409.9 72.64 419.88 97.89 416.43 140.57 392.26 179.79 376.54 192.88 315.38 188.46 261.08 185.36"/><polygon class="cls-5" points="511.57 108.36 489.06 102.3 471.32 117.41 470.12 94.13 450.27 81.92 472.03 73.6 477.51 50.94 492.16 69.06 515.39 67.28 502.67 86.8 511.57 108.36"/><polygon class="cls-6" points="179.2 197.73 179.2 204.77 191.83 211.48 202.5 211.48 217.17 208.66 231.11 197.73 235.89 183.92 233.47 173.49 225.61 174.63 224.38 177.32 223.5 188.46 213.92 196 199.34 200.22 188.95 200.99 179.2 197.73"/><polygon class="cls-7" points="167.5 246.06 153.07 214.03 146.03 218.25 148.52 235.89 155.75 249.08 167.5 246.06"/><polygon class="cls-8" points="180.35 261.97 179.2 272.28 193.39 275.39 207.55 275.39 213.52 265.93 180.35 261.97"/><polygon class="cls-9" points="225.61 177.59 222.16 189.67 201.07 200.22 183.42 196.96 147.94 180.01 141.57 171.26 161.37 170.09 212.23 174.71 225.61 177.59"/><polygon class="cls-10" points="280.65 224.53 318.01 191.32 345.09 190.82 377.69 192.88 391.88 197.15 388.24 201.75 334.73 217.09 280.65 224.53"/><polygon class="cls-11" points="172.91 269.34 204.32 277.5 178.82 295.72 161.56 305.69 158.29 302.18 172.91 269.34"/><polygon class="cls-12" points="155.35 249.61 144.11 219.54 117.26 234.58 97.13 253.34 101.73 257.23 130.68 255.26 155.35 249.61"/><polygon class="cls-13" points="247.54 164.45 235.89 169.95 256.87 190.25 287.12 203.29 299.5 206.25 314.7 191.39 332.43 191.02 356.98 185.35 381.69 168.39 378.26 155.35 396.1 133.48 401.83 114.46 378.26 103.95 355.06 106.78 340.87 97.89 314.69 94.72 284.11 81.32 276.05 75.06 274.13 94.72 235.89 79.4 228.66 78.64 228.66 92.12 239.12 114.46 246.09 122.14 228.66 128.35 231.11 140.57 247.54 164.45"/><polygon class="cls-14" points="158.29 249.08 167.5 257.23 138.51 282.68 118.8 291.5 86.58 298.02 60.71 298.02 38.25 288.44 20.61 272.28 12.17 249.08 21.67 233.68 24.06 222.08 32.88 210.74 43.24 208.66 47.84 215.81 57.43 237.81 72.39 245.1 100 247.39 95.78 253.77 100.77 257.23 132.6 253.77 158.29 249.08"/><path class="cls-2" d="M303.78,32h4c.66,0,1.32,0,2.16,0l2.77.14,3.12.17,3.34.37c2.33.22,4.82.68,7.44,1.16S332,35,334.78,35.75s5.62,1.7,8.42,2.84c2.84,1,5.61,2.34,8.36,3.6s5.4,2.8,7.92,4.4,4.92,3.26,7.23,4.84c2.2,1.77,4.4,3.35,6.28,5.11,1,.87,1.89,1.69,2.79,2.49l2.45,2.47c1.61,1.54,2.93,3.1,4.13,4.46a44.55,44.55,0,0,1,3,3.57l2.48,3.2-2.91-2.8c-.9-.9-2.07-1.94-3.44-3.07s-2.87-2.46-4.65-3.72l-2.72-2c-1-.63-2-1.31-3-2-2-1.42-4.37-2.62-6.69-4-2.42-1.17-4.85-2.52-7.48-3.52-2.56-1.16-5.26-2.07-7.94-3s-5.4-1.65-8.13-2.16-5.39-1-8-1.41-5.11-.59-7.49-.64-4.63-.16-6.7-.05l-3,.11-2.57.23c-.8.08-1.54.16-2.23.21s-1.46.22-2.08.3l-4,.6A7,7,0,0,1,302.75,32,7.13,7.13,0,0,1,303.78,32Z"/><g class="cls-15"><path class="cls-16" d="M298.3,99.29s-20.92-18.48-22.06-19.18S273,94.72,273,94.72l10.36,5.71Z"/><g class="cls-17"><path class="cls-18" d="M269,173.34c-24.16-13.17-29.91-40.62-29.83-45s8.16-2.83,12.52-7.71C243.81,113.16,235,83,239.12,82.38l-10.46-2.3s0,14.09,0,14.64,13.73,22.46,13.73,22.46v5l-11.28,2.52L227.34,132l13.57,22.86,6,8.78-14.32,7.65-11.43,4.43-33.91-4.43-42.6-2.47-4,4.72L153.07,183l19.83,11,8.31,5L152.16,214l-15.55,9.71L97.89,247.39l-1.53,7.87s7.37,4.33,5.75,5.2c-8.43,4.49,3.45,14.93,33.18,10.91C60.71,301.06,29.82,249.08,34.05,213.64c-10.16,2.68-11.33,12.08-12.92,18.18-1.44,5.56,5.52,16,6.75,17.77-.62-.88-4.46-11.19-8.78-11.75-7.74-1-4.82,22.32-4.82,22.32l12.08,18.11L45,292.65l23.59,5.56,27-.19,27.23-7.67,27.11-16.3,17-18-10.17-4.88-20.15,3.54-16.28,2.55s-14.57.33-17.17-1.59,27.53-15.73,34.24-15.23,8,9.29,7.48,10.73c-.77,1.92,23.2-5.28,23.2-5.28,6.46,6.44,9.84,9.34,14.17,11l-1.9,5.91-10.54,8.05s-9.78,30.11-9.59,31.39,2.49,3.7,7.28,0c-2.7-6.77,31.84-34.46,39.4-34.46l-19-9.44c1.7.29,3.61.54,5.86.82-35.65-19.37-4.53-49.15-4.53-49.15s5.09-5.13,5.18-6.47,2.45-4.6.14-5.59-24.88-13.68-24.88-18.1,51.92,8.16,51.92,10.6c0,3.11,6.38-5,10.07.43,17.26,1.73,36.1-8.63,38.06-12.13S265.54,179.34,269,173.34Z"/><path class="cls-19" d="M385.84,197.75c-1.82-1.12-71.35-1.28-77-.41l-26.46,25.51,5.56,1,95.89-19S387.66,198.88,385.84,197.75Z"/></g></g><path class="cls-20" d="M319.66,211.36a117.84,117.84,0,0,1-30.07-3.94c-28.12-7.44-51.9-24.55-66.95-48.17S203,108.12,209.91,82C221.36,38.74,263,8.5,311.1,8.5a117.84,117.84,0,0,1,30.07,3.94c58.15,15.39,93.9,71.63,79.68,125.39C409.4,181.12,367.79,211.36,319.66,211.36Zm-8.56-196c-45,0-83.87,28.12-94.52,68.39-6.4,24.2-2.18,49.68,11.88,71.74s36.45,38.21,62.9,45.2a110.79,110.79,0,0,0,28.3,3.71c45,0,83.86-28.12,94.51-68.39C427.42,86,393.88,33.53,339.4,19.12A110.35,110.35,0,0,0,311.1,15.41Z"/><path class="cls-20" d="M377.77,158.81a3.45,3.45,0,0,1-2.28-6c21-18.45,27.51-39.48,24-47-.09,0-4.6-4.15-43.19,4.18a3.45,3.45,0,1,1-1.46-6.75c40.88-8.81,48.67-5.13,50.91-.36,5.18,11.06-3.17,35.27-25.7,55.09A3.47,3.47,0,0,1,377.77,158.81Z"/><path class="cls-20" d="M322.06,195.07c-1.34,0-2.69,0-4.06-.09a3.45,3.45,0,0,1,.29-6.9,87,87,0,0,0,60.65-21.3l-4.33-10.05a3.45,3.45,0,1,1,6.33-2.73l5.29,12.25a3.48,3.48,0,0,1-.66,3.74C384.58,171,361.46,195.07,322.06,195.07Z"/><path class="cls-20" d="M267.25,179.79a3.53,3.53,0,0,1-1.71-.45c-28.49-16.21-39.22-38.86-40.92-48.57-.5-2.9-.24-4.77.87-6.05a3.44,3.44,0,0,1,2-1.16c7-1.22,13.81-2.75,20.22-4.53a3.45,3.45,0,0,1,1.85,6.65c-5.79,1.61-11.89,3-18.15,4.19,1.28,7,10.74,28.23,37.52,43.47a3.45,3.45,0,0,1-1.7,6.45Z"/><path class="cls-20" d="M355.57,110.06a3.45,3.45,0,0,1-3.06-1.86c-1.75-2.43-18.46-12.37-41.7-8.14a79.3,79.3,0,0,0-18.82,5.7,3.46,3.46,0,0,1-2.84-6.3,86.8,86.8,0,0,1,20.42-6.19c25.87-4.72,46.41,6.29,49.11,11.82a3.46,3.46,0,0,1-1.6,4.62A3.37,3.37,0,0,1,355.57,110.06Z"/><path class="cls-20" d="M248.65,125.81a3.38,3.38,0,0,1-1.37-.29c-15.38-6.65-23.15-30.6-23-41.58.06-4.59,1.44-7.45,4.08-8.51,4-1.63,13,1.94,39.82,14.22,9,4.13,20.21,9.27,22.44,9.52a3.4,3.4,0,0,1,3.48,3.32,3.51,3.51,0,0,1-3.41,3.57c-2.77.08-8.84-2.54-25.39-10.13-10.94-5-28.8-13.21-33.94-13.94-.43,2-.23,7.35,2.15,14.66,3.65,11.22,9.83,19.64,16.52,22.54a3.45,3.45,0,0,1-1.38,6.62Z"/><path class="cls-20" d="M316.17,99.29c-5.15,0-15.74-5.73-30.08-13.79-3.64-2-7.67-4.32-9.85-5.39-.89,2.42-1,9,0,14.92a3.45,3.45,0,0,1-6.82,1.07c-.93-5.91-2.37-20,4.46-23.1,2.21-1,3.6-.29,15.63,6.48,7.46,4.2,22.95,12.91,26.6,12.91h.2a3.45,3.45,0,0,1,.12,6.9Z"/><path class="cls-20" d="M324.14,113.64c.39,4.22-3.21,8-8.05,8.45s-9.08-2.6-9.48-6.82,3.22-8,8.05-8.45S323.75,109.42,324.14,113.64Z"/><path class="cls-20" d="M352,140.2a94.58,94.58,0,0,1,13.12-5.95c2.25-.81,4.5-1.62,6.79-2.32,1.14-.37,2.31-.67,3.47-1s2.43-.56,3.65-.84h.05a2.13,2.13,0,0,1,2.56,1.6,1.91,1.91,0,0,1,.06.48,5.54,5.54,0,0,1-.48,2.35c-.22.53-.44,1-.68,1.5-.48.93-1,1.79-1.55,2.64a46.55,46.55,0,0,1-3.5,4.81,42.65,42.65,0,0,1-4.08,4.32,16.25,16.25,0,0,1-4.93,3.35,17.32,17.32,0,0,0,1.8-2.26c.53-.8,1.06-1.58,1.55-2.4,1-1.62,1.94-3.28,2.89-4.92s1.81-3.31,2.67-5c.42-.83.8-1.67,1.15-2.47.18-.41.33-.8.46-1.17s.16-.83.15-.45l2.67,2.07c-2.13.48-4.41,1.11-6.7,1.68-1.14.3-2.3.57-3.45.83s-2.31.57-3.47.82c-2.33.49-4.66,1-7,1.38A71.14,71.14,0,0,1,352,140.2Z"/><path class="cls-20" d="M378.26,104c0,3.74,9.64,20.85,21,21.72,2.14-3.08,4-20.14,2.45-21.72S378.26,104,378.26,104Z"/><path class="cls-20" d="M106.56,260.67c-9.91,0-12.58-2.54-13.5-5.55-1.41-4.6-4-13.14,88.1-61.19l3.2,6.12C110.26,238.7,100.92,250.3,99.83,253c5.58,3.2,39.64-2.76,69-10.57l1.78,6.67c-.18.05-17.88,4.75-35.74,8.11C121.73,259.68,112.73,260.67,106.56,260.67Z"/><path class="cls-20" d="M223.8,180l-3.06-6.18c27.57-13.67,28-13.67,28.83-13.67l1.47,6.58C250.94,166.78,240.05,172,223.8,180Z"/><path class="cls-20" d="M214.11,269.34c-23.82,0-38.75-10.81-47.25-20.25-12.06-13.4-17-30.74-15.81-37.61l6.8,1.18c-.67,3.84,2.56,18.94,14.14,31.8,8.11,9,22.86,19.43,47.16,17.8l.46,6.89C217.73,269.28,215.89,269.34,214.11,269.34Z"/><path class="cls-20" d="M201.61,279.62a54.48,54.48,0,0,1-30.6-8.91L174.8,265c9,5.95,19.65,8.5,31.57,7.57l.53,6.88C205.12,279.55,203.35,279.62,201.61,279.62Z"/><path class="cls-20" d="M152.42,251.14c-8.75-14.12-11.56-29.19-10.7-34.92l6.82,1c-.59,4,1.73,17.33,9.75,30.28Z"/><path class="cls-20" d="M161,309.69a4.51,4.51,0,0,1-1.86-.36,7,7,0,0,1-4-5.2c-2.61-12.37,19.91-46.88,23.5-50.82l5.1,4.65c-5.85,6.43-24.28,38.86-21.89,44.79,8-2,45.15-31.54,75.14-55.4,34.23-27.23,66.56-53,79.78-58.89l2.83,6.3c-12.44,5.58-45.93,32.22-78.31,58C187.29,295.69,168.55,309.69,161,309.69Z"/><path class="cls-20" d="M194.36,204.82c-4,0-48.16-18.92-55.82-27.89a6.49,6.49,0,0,1-1.87-5.25c.68-4.27,6-5.79,20.22-5.79a361.18,361.18,0,0,1,43.52,3.21c27.19,3.62,27.66,6.67,28,9.12a16.23,16.23,0,0,1-4,13.5C215.8,201.8,196.19,204.82,194.36,204.82Zm-49.6-31.27c7.75,7,43.81,22.7,49.83,24.34,2.85-.32,18.69-3.38,24.84-10.94a9.46,9.46,0,0,0,2.31-6.57c-6.45-3-41.72-7.59-64.85-7.59A69.64,69.64,0,0,0,144.76,173.55Z"/><path class="cls-20" d="M199.61,215.81A31.6,31.6,0,0,1,187,213.24c-6.69-2.89-11.62-8-12.58-13l6.79-1.29c.44,2.32,3.51,5.8,8.52,8,4,1.71,14.57,4.77,27.79-3.65,11.65-7.41,14.15-15.72,14.6-20,.42-4-.64-6.34-1.08-6.77.07.07-.79-2-.35-1.94l2.12-4.58c2.78.4,5,3.13,5.88,7.3,1.81,8.4-1.67,21.78-17.46,31.83A40.53,40.53,0,0,1,199.61,215.81Z"/><path class="cls-20" d="M269.45,229.49a3.45,3.45,0,0,1-.24-6.89c43.88-3.15,110.91-16.33,117.38-24.61-3-1.06-13.16-3.1-47.57-4.57a3.45,3.45,0,0,1,.29-6.9c51.84,2.22,53.1,5.65,54.2,8.68a6.62,6.62,0,0,1-.79,6c-9.81,15.12-100.68,26.72-123,28.32Z"/><path class="cls-20" d="M240.31,239.67c-2.52,0-27-11.81-27.94-15.16-.44-1.58-.66-2.37,13-13.78,3-2.48,12.79-10.63,14.55-11.19a2.88,2.88,0,0,1,.83-.13c3.54,0,23.72,11.67,25.89,14a2.67,2.67,0,0,1,.81,2.09c-.25,3.25-23.45,24-27,24.15Zm-22.53-16.14c4.76,3.07,19.17,10.7,22.38,11.49,3.21-1.57,18.06-14.73,22-19.34-4.17-3-17.72-10.4-21.13-11.55A300,300,0,0,0,217.78,223.53Z"/><path class="cls-20" d="M258.77,224.53a2.27,2.27,0,0,1-1.12-.3l-25.37-14.32a2.3,2.3,0,0,1,2.26-4l25.37,14.32a2.32,2.32,0,0,1,.87,3.14A2.29,2.29,0,0,1,258.77,224.53Z"/><path class="cls-20" d="M243.35,207.47a1.22,1.22,0,1,1-1.22-1.22A1.22,1.22,0,0,1,243.35,207.47Z"/><path class="cls-20" d="M247,209.52a1.23,1.23,0,1,1-1.22-1.22A1.22,1.22,0,0,1,247,209.52Z"/><path class="cls-20" d="M76.89,302.18a120.35,120.35,0,0,1-13.32-.73c-28.2-3.09-52.22-28.32-54.84-48.82-1.26-9.78,2.77-17.2,11-20.35.46-.17.92-.32,1.37-.46l1.92,6.64c-.28.08-.55.17-.83.27-5.26,2-7.5,6.39-6.65,13,2,15.51,22,39.91,48.76,42.84,47.49,5.19,89.87-19.83,105.62-46l5.92,3.55C160.52,277.65,121.74,302.18,76.89,302.18Z"/><path class="cls-20" d="M28.28,252.41A3.44,3.44,0,0,1,25.53,251C17.29,240.2,16,227.4,22,216.79c4.57-8.08,12.46-12.74,20.08-11.92,6.37.69,8.05,6.84,9.68,12.78,3.31,12.09,7.86,28.66,47.81,26.51a3.45,3.45,0,0,1,.37,6.9c-45.53,2.38-51.35-18.86-54.84-31.59-1.41-5.13-2.24-7.57-3.77-7.74-4.82-.53-10.16,2.88-13.33,8.46-4.59,8.13-3.45,18.1,3.07,26.68a3.46,3.46,0,0,1-2.75,5.54Z"/><polygon class="cls-20" points="318.14 192.87 286.15 224.46 274.13 224.46 318.14 192.87"/><path class="cls-20" d="M172.9,266.93c4.39,3.48,32.1,3.67,37.33,1.75s-30.35-11.45-30.35-11.45Z"/><path class="cls-20" d="M155.35,252c1.42,1.72,10.42,8.16,10.42,8.16l5.38-9.12-3.07-3.65Z"/><path class="cls-20" d="M284.11,99c.76-1.15,12-4.6,19.08-4.21s-13,7.09-13,7.09Z"/><path class="cls-20" d="M267.62,179.78c-8.1.44-25.69-9.34-25.22-12.72s7.17-2.51,7.17-2.51Z"/></g></g></g></svg>