<svg xmlns="http://www.w3.org/2000/svg" viewBox="0 0 595.59 883.63"><title>Fichier 3</title><g id="28b6c654-9b50-42ad-ac9b-49d0508b13ce" data-name="Calque 2"><g id="2ad34acb-2a65-4be8-b963-5d290b5dde58" data-name="Accueil"><path d="M591.71,15A17.44,17.44,0,0,0,584.79,3,17.53,17.53,0,0,0,571.22.39C423.31,31.59,262.42,142.26,142,311.28,93,322.72,44,347.12,0,383v44.4a368.43,368.43,0,0,1,36.11-30.2,327.83,327.83,0,0,1,76.47-42.06c-42.17,66.78-74.09,136-95.52,203.78L0,557.13V590.7l7.55.79Q3.42,606.89,0,622.14V664a16.75,16.75,0,0,0,1.35,1.08l16,11.37A92.68,92.68,0,0,0,0,691v82.35c10.68-39.59,17.55-50.94,19.18-53.26a58.61,58.61,0,0,1,28.87-21.79l60.3,42.9a58.9,58.9,0,0,1-11.1,34.42C95,778.74,79.85,796.9,2.9,843.17L0,844.91v38.73c48-28,108.19-65.91,124.41-88.73A93.72,93.72,0,0,0,139.08,763l12,8.55a16.64,16.64,0,0,0,17.66,1q25-14.18,49.82-31.05l50.65,107.89c.3.74,1.14,2.36,1.14,2.36a16.46,16.46,0,0,0,4.81,5.33,16.65,16.65,0,0,0,19.91-.44s1-.83,1.17-1a422.28,422.28,0,0,0,69.15-76c58.14-81.78,82.33-175.16,73.65-257.19C559.13,353.21,610.82,164.91,591.71,15ZM560.53,37.12c4.57,53.49-.13,112-13.84,172.36L402.28,106.81C454.76,74,508.52,50.38,560.53,37.12ZM392.69,650.71A382.21,382.21,0,0,1,338.23,760.3a391.73,391.73,0,0,1-47.87,55.64l-44.18-94.12c57-42.52,111.88-95.38,161.11-157.15A328.13,328.13,0,0,1,392.69,650.71Zm-79-31.16A794.39,794.39,0,0,1,206,709.75q-22,15.31-44.4,28.38l-132.22-94q5-25.45,12.22-51.26A793.63,793.63,0,0,1,91.5,461.6,910.5,910.5,0,0,1,266.33,215.69a794.31,794.31,0,0,1,106.14-89.17l165.38,117.6a793.45,793.45,0,0,1-49.36,129.52,900.7,900.7,0,0,1-77.15,130.24A900.63,900.63,0,0,1,313.66,619.54Z" style="fill:#e52a36;opacity:0.55"/></g></g></svg>