<svg xmlns="http://www.w3.org/2000/svg" width="50.42" height="50.39" viewBox="0 0 50.42 50.39"><title>Fichier 7</title><g fill="#fff" data-name="Calque 1"><path d="M20.26 17.27L1.35 0 0 1.48l18.91 17.27"/><path d="M18.86 10.07l.1 7.3-7.92.16.04 2 9.91-.2-.13-9.28-2 .02zM30.13 33.05l18.94 17.23 1.35-1.48-18.95-17.23"/><path d="M31.54 40.25l-.11-7.3 7.92-.18-.04-1.99-9.91.22.14 9.28 2-.03zM18.92 31.6L.06 48.91l1.35 1.48 18.87-17.32"/><path d="M20.89 40.3l.11-9.29-9.91-.17-.04 2 7.93.14-.09 7.29 2 .03zM31.48 18.77L50.42 1.53 49.08.06 30.13 17.29"/><path d="M29.55 10.06l-.15 9.28 9.91.22.04-2-7.92-.18.11-7.29-1.99-.03z"/></g></svg>