<svg xmlns="http://www.w3.org/2000/svg" width="55.42" height="64.25" viewBox="0 0 55.42 64.25"><title>Fichier 5</title><g fill="#fff" data-name="Calque 1"><path d="M27.72 62h15.45a9.35 9.35 0 0 0 9.24-9.41v-.07l-2.29-16.46-2 .28 2.28 16.34 1-.14h-1a7.48 7.48 0 0 1-2.14 5.24A7.13 7.13 0 0 1 43.17 60H27.72v2z"/><path d="M27.74 60l-15.45.16h-.07a7.11 7.11 0 0 1-4.85-1.92A7.47 7.47 0 0 1 5 52.77H4l1 .13 2.08-16.36-2-.26L3 52.72v.07a9.48 9.48 0 0 0 3 6.87 9.12 9.12 0 0 0 6.2 2.45h.09L27.76 62v-2z"/><path d="M19.65 60.9a7.27 7.27 0 0 1 7.24-7.22h1.74a7.26 7.26 0 0 1 7.22 7.24h2a9.26 9.26 0 0 0-9.21-9.24h-1.75a9.26 9.26 0 0 0-9.24 9.21h2zM32.93 25.06l-14.28.01v2l14.28-.01"/><path d="M12.65 25.06H6.32A4.34 4.34 0 0 1 2 20.74v-5.15a4.34 4.34 0 0 1 4.32-4.32H49.1a4.34 4.34 0 0 1 4.32 4.32v5.15a4.34 4.34 0 0 1-4.32 4.32H36.85v2H49.1a6.34 6.34 0 0 0 6.32-6.32v-5.15a6.34 6.34 0 0 0-6.32-6.32H6.32A6.34 6.34 0 0 0 0 15.59v5.15a6.34 6.34 0 0 0 6.32 6.32h6.32v-2z"/><path d="M16.68 20.4v10.64h2V20.4M36.94 20.4v10.64h2V20.4M18.65 2h18.2V0h-18.2M4.37 63.7l3.12-4.18a1 1 0 0 0-1.6-1.2L2.77 62.5a1 1 0 1 0 1.6 1.2M52.66 62.65l-3.09-4.2A1 1 0 1 0 48 59.64l3 4.2a1 1 0 1 0 1.61-1.19"/></g></svg>