<svg xmlns="http://www.w3.org/2000/svg" width="75.05" height="51.71" viewBox="0 0 75.05 51.71"><title>Fichier 4</title><g fill="#fff" data-name="Calque 1"><path d="M27.38 20.66l22.15 13.43 1.04-1.71-22.16-13.43M7.91 44.08l15.13-22.86-1.67-1.1L6.24 42.98"/><path d="M27.63 20.06l.83.55a4.92 4.92 0 1 0-4.1 2.2 4.9 4.9 0 0 0 4.1-2.2l-.83-.55-.83-.55a2.92 2.92 0 1 1 .48-1.61 2.91 2.91 0 0 1-.48 1.61zM8.18 49l.83.55a4.91 4.91 0 1 0-4.1 2.2A4.9 4.9 0 0 0 9 49.51L8.18 49l-.83-.55a2.91 2.91 0 1 1 .48-1.61 2.91 2.91 0 0 1-.48 1.61zM55.89 32.84L69.12 8.83l-1.75-.97-13.23 24.01"/><path d="M73.56 6.81l.88.48a4.91 4.91 0 1 0-4.31 2.54 4.9 4.9 0 0 0 4.31-2.54l-.88-.48-.88-.48A2.91 2.91 0 1 1 73 4.92a2.92 2.92 0 0 1-.36 1.4zM56.56 37.67l.88.48a4.91 4.91 0 1 0-4.31 2.54 4.9 4.9 0 0 0 4.31-2.54l-.88-.48-.88-.48a2.91 2.91 0 1 1 .36-1.4 2.92 2.92 0 0 1-.36 1.4z"/></g></svg>