<svg xmlns="http://www.w3.org/2000/svg" width="51.96" height="55.61" viewBox="0 0 51.96 55.61"><title>Fichier 13</title><g fill="#e42936" data-name="Calque 1"><path d="M39.87 25.45a12 12 0 1 0-23.68 4.27l2-.35A10 10 0 1 1 37.9 25.8l2-.35z"/><path d="M32.27 51.13A23.93 23.93 0 1 0 23.78 4l.36 2a21.93 21.93 0 1 1 7.78 43.16l.35 2z"/><path d="M8.28 31.14a20 20 0 0 0 23.31 16.19l-.35-2a18 18 0 0 1-21-14.58l-2 .35z"/><path d="M23.06 0A28 28 0 1 0 33 55.16l-.35-2A26 26 0 1 1 23.41 2l-.35-2z"/><path d="M30.44 28h1a3.33 3.33 0 1 0-3.33 3.33A3.33 3.33 0 0 0 31.44 28h-2a1.33 1.33 0 1 1-1.33-1.33A1.33 1.33 0 0 1 29.44 28z"/></g></svg>