<svg xmlns="http://www.w3.org/2000/svg" width="46.873" height="46.873" viewBox="0 0 46.873 46.873"><path d="M5.241 32.598c-.5 0-.732.576-.732 1.299 0 .754.255 1.299.742 1.299.479 0 .711-.49.711-1.299 0-.733-.197-1.299-.721-1.299zM10.448 35.595c-.513 0-.733.578-.733 1.3-.011.754.245 1.297.733 1.297.477 0 .709-.486.709-1.297 0-.735-.187-1.3-.709-1.3z"/><path d="M7.832 27.572C3.505 27.572 0 31.08 0 35.406s3.505 7.834 7.832 7.834c4.326 0 7.835-3.508 7.835-7.834s-3.509-7.834-7.835-7.834zm-4.579 6.369c0-1.287.788-2.265 2.021-2.265 1.243 0 1.941.91 1.941 2.144 0 1.51-.955 2.297-1.997 2.297-1.098-.002-1.965-.82-1.965-2.176zm3.067 4.922a.394.394 0 0 1-.686-.385l3.7-6.636a.396.396 0 0 1 .689-.008.4.4 0 0 1 .004.396L6.32 38.863zm4.093.252c-1.086 0-1.953-.821-1.963-2.176 0-1.287.787-2.266 2.02-2.266 1.244 0 1.941.91 1.941 2.143 0 1.51-.953 2.299-1.998 2.299zM1.394 7.793h44.208a.563.563 0 0 0 .371-.988l-2.467-2.151a4.122 4.122 0 0 0-2.688-1.021H6.126a4.125 4.125 0 0 0-2.723 1.051l-2.385 2.12a.568.568 0 0 0 .376.989z"/><path d="M35.716 16.485l-1.884 1.372c-1.879 1.382-4.405 1.289-6.284-.093l-1.837-1.325c-1.152-.848-2.703-.799-3.858.045l-1.883 1.36c-1.881 1.382-4.405 1.275-6.283-.107l-1.839-1.352a3.266 3.266 0 0 0-3.87-.008l-3.387 2.526v7.785c1.053-.369 2.098-.576 3.229-.576.971 0 1.918.158 2.797.42h27.721v6.635c0 1.097-.906 2-2.003 2H17.118a9.215 9.215 0 0 1-1.33 5.039l22.528-.008a4.068 4.068 0 0 0 4.074-4.07v-17.67l-2.82-2.018c-1.152-.848-2.698-.8-3.854.045zm2.621 7.522H8.856V22.73c0-1.096.89-1.986 1.985-1.986h25.492c1.097 0 2.003.89 2.003 1.986l.001 1.277z"/><path d="M46.622 9.192a1.1 1.1 0 0 0-.845-.398H1.348a1.096 1.096 0 0 0-1.057 1.39l1.378 4.964a2.004 2.004 0 0 0 3.135 1.07l1.984-1.485a5.287 5.287 0 0 1 6.269.012l1.837 1.353a3.252 3.252 0 0 0 3.867 0l1.858-1.367a5.283 5.283 0 0 1 5.566-.438c.016.008.029.019.045.027.213.112.422.233.623.377l2.252 1.616a3.245 3.245 0 0 0 3.519-.216l1.858-1.367a5.275 5.275 0 0 1 5.565-.44l.045.024c.212.113.423.225.623.369l2.078 1.482a2.01 2.01 0 0 0 3.136-1.255l.922-4.811a1.084 1.084 0 0 0-.229-.907z"/></svg>