<svg xmlns="http://www.w3.org/2000/svg" viewBox="0 0 29.63 43.43"><title>Fichier 14</title><g data-name="Accueil" fill="#e42936"><path d="M21.71 31.4H7.91a.66.66 0 0 1-.66-.58 8.16 8.16 0 0 0-2-4.68 14.81 14.81 0 1 1 19 .06 8.16 8.16 0 0 0-1.93 4.63.66.66 0 0 1-.66.59zM8.49 30.07h12.65a9.14 9.14 0 0 1 2.26-4.86 13.49 13.49 0 1 0-17.22-.05.49.49 0 0 1 .11.12 9.19 9.19 0 0 1 2.21 4.79zm0 0M21.71 35.41H7.91a.66.66 0 1 1 0-1.33h13.8a.66.66 0 1 1 0 1.33zm0 0M19.88 39.42H9.75c-.27 0-.49-.3-.49-.67s.22-.66.49-.66h10.13c.27 0 .49.3.49.66s-.22.67-.49.67zm0 0M17.7 43.43h-5.78a.66.66 0 1 1 0-1.33h5.78a.66.66 0 0 1 0 1.33zm0 0"/></g></svg>