<svg xmlns="http://www.w3.org/2000/svg" viewBox="0 0 626.2 261.5"><path d="M189.6 86.6h19.3v87.2h-19.3zM401.3 86.6L387.8 135h-.3l-14.2-48.4h-24.8l-13.7 87.2h18.9l8.6-62.4h.3l17.1 62.4h16l16.5-62.4h.3l9.1 62.4h19.5l-14.6-87.2zM519.5 173.8h20.4l-34.6-87.2h-26.9l-34.5 87.2H463l7-17.4h42.7l6.8 17.4zm-28.2-71.4h.2l14.6 37.5h-29.8l15-37.5zM272.3 122v18H303v1.1c0 11.5-10 19.7-26.5 19.7-16.6 0-29.8-8.8-29.8-30.2 0-21.8 13.9-30.3 29.8-30.3 12.7 0 21.9 2.2 32.2 7.5l8.9-14.8c-10.8-6.2-26.5-10.2-41.1-10.2-26.5 0-50.1 14.1-50.1 48.1 0 29.8 20.5 46.9 49.2 46.9 31.7 0 46.8-15.1 47.4-42.4.1-4.1-.1-7.9-.3-13.5h-50.4zM150.5 123.1c-12-2.6-20.1-1.6-32.3-3.9-7.6-1.5-9.9-4.2-9.9-8 0-7.2 9.6-11 22.2-11 9.9 0 20 2.3 29.5 6.7l9.3-15.8c-10.3-5.3-24.7-8.6-40.8-8.6-15.6 0-40.1 7.2-40.1 29.9 0 13.3 8.9 21.4 20.3 24.1 10.9 2.5 17.8 1.9 30.9 3.9 8.5 1.3 11.9 4.1 11.9 9 0 7-8.9 11.3-22.2 11.3-10.8 0-22.3-2.3-33.5-7.1L88 170c13.9 6.3 28.2 8.6 40.1 8.6 26.7 0 44.1-11.4 44.1-30.6-.1-12.9-7.8-21.9-21.7-24.9z"/></svg>