<svg xmlns="http://www.w3.org/2000/svg" width="41.86" height="45.06" viewBox="0 0 41.86 45.06"><title>Fichier 11</title><g fill="#e42936" data-name="Calque 1"><path d="M8.83 44.9v-5.12h-2v5.12M35.19 45.06V31.32h-2v13.74M22.01 5.13V0h-2v5.13M8.83 24.48V0h-2v24.48M35.11 17.57V0h-2v17.57M22.09 44.9V12.49h-2V44.9M14.34 38.68v-1H2v-5.36h11.34v6.36h1v-1 1h1v-8.36H0v9.36h15.34v-1h-1z"/><path d="M27.68 12.49v-1H15.34V6.13h11.34v6.36h1v-1 1h1V4.13H13.34v9.36h15.34v-1h-1zM40.86 29.89v-1H28.52v-5.36h11.34v6.36h1v-1 1h1v-8.36H26.52v9.36h15.34v-1h-1z"/></g></svg>