<svg xmlns="http://www.w3.org/2000/svg" viewBox="0 0 580.7 824.67"><title>Fichier 1</title><g opacity=".55" fill="#e42936" data-name="Accueil"><path d="M416.28 115q1.67 1.45 3.33 2.92-1.61-1.44-3.33-2.92zM432.87 130.28q1.91 1.86 3.8 3.75-1.89-1.89-3.8-3.75zM380.11 568.22c-5.45 5.45-9.1 12.26-10 18.68-.43 3-.6 8.52 3 12.12s9.15 3.43 12.13 3c6.42-.91 13.23-4.57 18.68-10 11.15-11.14 12.63-25.18 7-30.8-6.34-6.34-20.75-3.06-30.81 7z"/><path d="M459.93 120.77C382.05 42.89 278.5 0 168.37 0A411.23 411.23 0 0 0 0 35.73v28.51a382.57 382.57 0 0 1 99.59-32.33l-1 .16 1-.16q3.58-.64 7.18-1.22l.54-.09c2.53-.4 5.07-.77 7.61-1.12l1.73-.23q3.8-.51 7.61-.94l.85-.09q3.53-.39 7.08-.72l1.6-.15q3.8-.34 7.61-.6l1.48-.09q3.49-.23 7-.39l1.15-.06q3.85-.17 7.71-.26h1.74c2.63-.05 5.26-.09 7.89-.09 2.34 0 4.67 0 7 .07h1.43q3.4.07 6.79.2l1.2.05q3.18.13 6.35.31h.88q3.4.2 6.79.47l1.47.12q3.4.28 6.79.61l.7.07q3.18.32 6.35.69l1.27.15q3.33.4 6.64.86l1.36.19q3.29.47 6.57 1h.31q3.37.54 6.73 1.14l1.41.25q3.29.6 6.56 1.25l1.08.22q3 .62 6.07 1.28l1 .21q3.26.73 6.5 1.51l1.4.34q3.28.8 6.55 1.66l.48.13q3.12.83 6.21 1.71l1.27.36q3.18.91 6.35 1.88l1.25.39q3 .94 6.08 1.93l.41.13.15.05q2.46.81 4.92 1.66l1.32.46 3.59 1.27 1.76.64 3.15 1.17 1.85.7 3.13 1.21 1.76.69 3.49 1.41 1.34.54 4.78 2 1 .42L325.6 59l1.65.74 3.11 1.42 1.79.83 3 1.42 1.74.84 3.21 1.58 1.47.73q2.32 1.16 4.62 2.36l.33.17q2.14 1.12 4.27 2.26l1.49.81 3.09 1.69 1.7 1 2.9 1.64 1.7 1 3 1.76 1.52.9q1.93 1.16 3.85 2.33l.61.37q2.22 1.37 4.42 2.77l1.31.84 3.09 2 1.61 1.06 2.79 1.87 1.65 1.12 2.81 1.94 1.52 1.06 3.28 2.33 1 .72q2.12 1.53 4.23 3.1l1.06.8 3.14 2.38 1.49 1.15 2.71 2.11 1.56 1.24 2.66 2.13 1.5 1.21 2.91 2.4 1.17 1q2 1.7 4 3.43l.66.57q1.67 1.45 3.33 2.92l1.36 1.22 2.6 2.35 1.49 1.37 2.49 2.31 1.45 1.37 2.62 2.51 1.24 1.2q1.91 1.86 3.8 3.75a386.51 386.51 0 0 1-273.23 659.77A385 385 0 0 1 0 760.44v28.51a411.23 411.23 0 0 0 168.37 35.73c110.13 0 213.69-42.89 291.56-120.77S580.7 522.47 580.7 412.34s-42.89-213.68-120.77-291.57z"/><path d="M137.82 268.74a68 68 0 1 0-68-68 68.08 68.08 0 0 0 68 68zm0-110.18a42.18 42.18 0 1 1-42.18 42.19 42.23 42.23 0 0 1 42.18-42.19zM289.32 378.93a54.23 54.23 0 1 0 0-108.46 12.91 12.91 0 0 0 0 25.82 28.37 28.37 0 1 1-26.79 18.94 12.91 12.91 0 0 0-24.35-8.6 54.26 54.26 0 0 0 51.14 72.29zM205.17 493.47a62.85 62.85 0 1 1-60.47-45.67 62.43 62.43 0 0 1 36.14 11.43 12.91 12.91 0 0 0 14.87-21.11 88.67 88.67 0 1 0 37.65 72.53 89 89 0 0 0-3.36-24.23 12.91 12.91 0 1 0-24.85 7zM258.5 664.69a12.92 12.92 0 0 0-10.11 15.21c1.71 8.47-1.22 17.56-8.22 25.61-7.84 9-19.57 15.44-33 18.15s-26.76 1.3-37.47-4c-9.58-4.71-15.79-12-17.49-20.44a12.91 12.91 0 0 0-25.32 5.09c3.32 16.5 14.47 30.19 31.41 38.51a80.76 80.76 0 0 0 35.66 8 93.27 93.27 0 0 0 18.3-1.84c19-3.83 35.84-13.24 47.4-26.52C272 708.24 277 691.31 273.7 674.8a12.91 12.91 0 0 0-15.2-10.11zM295.17 125.43c8.8-9.25 27.67-6.16 41.21 6.73s17.54 31.59 8.73 40.83a12.91 12.91 0 1 0 18.7 17.81c18.77-19.71 14.46-54.41-9.62-77.35s-58.95-25.56-77.72-5.84a12.91 12.91 0 1 0 18.7 17.81zM413 352.13a12.92 12.92 0 0 0 12.8 13c12.76.11 23.4 16 23.24 34.69-.08 9.68-3.08 19-8.22 25.57-2.56 3.26-8 8.7-15.49 8.7h-.25a12.91 12.91 0 0 0-.11 25.82h.35c13.51 0 26.55-6.77 35.83-18.61 8.71-11.12 13.58-25.77 13.71-41.27.29-33.26-21.62-60.5-48.85-60.74h-.11a12.92 12.92 0 0 0-12.9 12.84zM53.17 323.84A12.9 12.9 0 1 0 44 320a13 13 0 0 0 9.17 3.84zM353.55 485.33a12.88 12.88 0 1 0-9.12 3.79 13 13 0 0 0 9.12-3.79zM411.29 296.29a12.9 12.9 0 1 0-9.15-3.79 13 13 0 0 0 9.15 3.79z"/><path d="M144.29 83.29a12.9 12.9 0 1 0-9.15-3.79 13 13 0 0 0 9.15 3.79zM39.41 681.94a12.93 12.93 0 1 0-9.14-3.78 13 13 0 0 0 9.14 3.78z" opacity=".55"/></g></svg>