<svg id="Calque_1" xmlns="http://www.w3.org/2000/svg" viewBox="0 0 684.2 819.3"><style>.st0{opacity:.55}.st1{fill:#e42936}</style><title>Fichier 2</title><g id="_x30_6239112-8630-42bb-ab04-637c44d56cb5"><g class="st0" id="_x37_7943dae-0ed2-44fa-8c5c-b9229f1a9ba6"><path class="st1" d="M183.5 283.9c-69.5 0-125.8 56.3-125.8 125.8S114 535.5 183.5 535.5s125.8-56.3 125.8-125.8c-.1-69.5-56.3-125.8-125.8-125.8zm0 218.6c-51.3 0-92.9-41.6-92.9-92.9 0-51.3 41.6-92.9 92.9-92.9 51.3 0 92.9 41.6 92.9 92.9-.1 51.3-41.6 92.9-92.9 92.9z"/><path class="st1" d="M183.5 0C119.8-.1 56.9 14.8 0 43.5v37.3C56.1 49.4 119.3 32.9 183.5 33c207.7 0 376.7 169 376.7 376.8s-169 376.8-376.7 376.8c-65.1.2-129.1-16.7-185.6-48.8-2.4 12.5-1.4 25 .2 37.5 57.4 29.2 121 44.4 185.4 44.2 225.9 0 409.7-183.8 409.7-409.7S409.4 0 183.5 0zM-91 598.3v.1zM-91 598.4z"/><path class="st1" d="M476.6 332.7c0-35.6-28.9-64.4-64.5-64.5-1.8 0-3.6.1-5.4.3-77.9-123.2-240.8-159.9-364-82.1-15.3 9.7-29.6 20.9-42.6 33.5.6 7.2.5 14.5-.2 21.6v.7l-.2 2.5c0 1.7.3 3.5.2 5.3.3 3.3.7 7 0 10.3l.6 8.4c77.8-101.1 222.8-120.1 323.9-42.3 19.6 15.1 36.7 33.2 50.5 53.7-29.1 20.5-36.1 60.7-15.6 89.8 12.1 17.1 31.7 27.3 52.7 27.3h2.2c.2 4.2.3 8.4.3 12.5 0 127.5-103.7 231.2-231.2 231.2-72 0-139.8-33.6-183.5-90.8v49.3c49.2 47.7 115 74.4 183.5 74.4 145.6 0 264.1-118.5 264.1-264.1 0-7.5-.3-15.1-1-22.5 18.9-11.9 30.2-32.4 30.2-54.5zm-64.5 31.6c-17.4 0-31.5-14.1-31.5-31.6 0-17.4 14.1-31.5 31.6-31.5 17.4 0 31.5 14.1 31.5 31.6-.1 17.3-14.2 31.4-31.6 31.5z"/></g></g></svg>