<svg xmlns="http://www.w3.org/2000/svg" xmlns:xlink="http://www.w3.org/1999/xlink" viewBox="0 0 369.18 217.75"><defs><linearGradient id="a" x1="376.87" y1="53.5" x2="18.35" y2="216" gradientUnits="userSpaceOnUse"><stop offset="0" stop-color="#f29523"/><stop offset="1" stop-color="#e32935"/></linearGradient><linearGradient id="b" x1="357.94" y1="12.45" x2="-.39" y2="174.87" xlink:href="#a"/><linearGradient id="c" x1="371.98" y1="43.28" x2="13.56" y2="205.75" xlink:href="#a"/><linearGradient id="d" x1="368.43" y1="35.69" x2="10.3" y2="198.02" xlink:href="#a"/><linearGradient id="e" x1="370.57" y1="42.31" x2="13.42" y2="204.2" xlink:href="#a"/><linearGradient id="f" x1="386.31" y1="74.23" x2="27.86" y2="236.7" xlink:href="#a"/><linearGradient id="g" x1="360.98" y1="18.27" x2="2.21" y2="180.89" xlink:href="#a"/><linearGradient id="h" x1="386.38" y1="74.58" x2="27.98" y2="237.03" xlink:href="#a"/><linearGradient id="i" x1="387.93" y1="78.29" x2="29.77" y2="240.63" xlink:href="#a"/><linearGradient id="j" x1="371.13" y1="41.85" x2="13.09" y2="204.14" xlink:href="#a"/><linearGradient id="k" x1="361.19" y1="19.43" x2="2.86" y2="181.85" xlink:href="#a"/><linearGradient id="l" x1="366.94" y1="31.38" x2="8.39" y2="193.9" xlink:href="#a"/><linearGradient id="m" x1="349.14" y1="-7.55" x2="-9.78" y2="155.14" xlink:href="#a"/><linearGradient id="n" x1="365.24" y1="29.21" x2="7.25" y2="191.47" xlink:href="#a"/><linearGradient id="o" x1="386.78" y1="75.44" x2="28.36" y2="237.91" xlink:href="#a"/></defs><title>Fichier 1</title><g data-name="Accueil" style="isolation:isolate"><path d="M253 141.9l16.26-10.09 15-13.8 11.87-18 3.41-24.12L296.76 56 284 34l-17.13-17.48L240.19 4.6l-22.34-1.87L193.12 7l-14 7.77-16.9 13.17L150.8 49.8l-4.61 25.65 5.93 20s8.58 18.3 9.29 18.3 2.24 4.51 2.24 4.51l1 7.48-2.5 10.35-9 7.72-11.36 2.9-7.89 1.29-8.44-5.46-2.73-3.54-15.63 8.37.37 8.35 8.33 14.73 11 10 16.09 5 9.42 1.2L209.49 143z" fill="#fff"/><path d="M121.9 139.44l-15.28 7.8s1.08 11.6 1.36 11.88 10.12 14.74 10.48 15 9.49 7.8 10.26 7.86 17.05 4.61 17.05 4.61l8.8-1.15 53.92-40.7-3.58-3.47-23.46-11.14-14.87-12.45-2.87 10.2-5.59 10.75-5.3 4.37-10.06 3.25-8.1.44-7.84-4.16z" opacity=".3" fill="url(#a)"/><path opacity=".3" fill="url(#b)" d="M183.96 127.86l-21.83-14.07-11.41-20.87-2.34-8.21V49.87l13.75-21.35 17.41-13.31 17-9.71 26.47-2.77 27.16 4.72 20.16 11.09 10.36 8.87 11.66 18.96 7.27 18.25-2.52 30.87-17.6 28.35-11.45 9.46-44.54-3.19-39.55-2.25z"/><path fill="url(#c)" d="M366.39 72.19L350 67.81l-12.92 10.93-.87-16.83-14.46-8.83 15.85-6.02 3.99-16.38 10.67 13.1 16.92-1.28-9.26 14.11 6.47 15.58z"/><path fill="url(#d)" d="M124.33 136.81v5.09l9.19 4.85h7.78l10.68-2.04 10.15-7.9 3.48-9.99-1.76-7.54-5.72.83-.9 1.95-.64 8.05-6.98 5.45-10.62 3.05-7.56.55-7.1-2.35z"/><path fill="url(#e)" d="M115.8 171.75l-10.5-23.16-5.13 3.05 1.81 12.76 5.27 9.53 8.55-2.18z"/><path fill="url(#f)" d="M125.17 183.25l-.84 7.46 10.33 2.25h10.31l4.35-6.85-24.15-2.86z"/><path fill="url(#g)" d="M158.13 122.25l-2.52 8.73-15.36 7.63-12.85-2.36L101.56 124l-4.64-6.33 14.42-.85 37.04 3.35 9.75 2.08z"/><path fill="url(#h)" d="M198.22 156.18l27.21-24.01 19.72-.36 23.74 1.49 10.33 3.09-2.65 3.33-38.97 11.09-39.38 5.37z"/><path fill="url(#i)" d="M119.74 188.58l22.88 5.9-18.57 13.18-12.57 7.2-2.39-2.54 10.65-23.74z"/><path fill="url(#j)" d="M106.95 174.32l-8.18-21.74-19.55 10.87-14.67 13.56 3.35 2.82 21.09-1.43 17.96-4.08z"/><g><path fill="url(#k)" d="M174.1 112.75l-8.49 3.97 15.29 14.68 22.02 9.43 9.02 2.14 11.07-10.75 12.92-.27 17.87-4.09 18-12.27-2.49-9.43 12.99-15.8 4.17-13.76-17.16-7.6-16.9 2.05-10.34-6.43-19.06-2.29-22.28-9.68-5.87-4.53-1.39 14.21-27.86-11.07-5.26-.55v9.74l7.62 16.15 5.07 5.56-12.69 4.49 1.78 8.84 11.97 17.26z"/><path fill="url(#l)" d="M109.09 173.93l6.71 5.9-21.11 18.4-14.36 6.38-23.46 4.71H38.02l-16.35-6.93-12.85-11.68-6.15-16.78 6.92-11.13 1.75-8.39 6.42-8.19 7.54-1.51 3.35 5.17 6.99 15.9 10.89 5.27 20.11 1.67-3.07 4.61 3.63 2.5 23.19-2.5 18.7-3.4z"/></g><path d="M215.06 17h4.52l2 .11 2.28.12 2.43.27c1.69.16 3.51.49 5.42.83s3.89.88 5.92 1.4 4.09 1.23 6.13 2.06 4.08 1.69 6.09 2.61 3.93 2 5.77 3.18 3.59 2.35 5.27 3.5 3.21 2.42 4.58 3.69l2 1.79 1.79 1.79c1.17 1.12 2.13 2.24 3 3.22a33.55 33.55 0 0 1 2.16 2.58l1.8 2.32-2.12-2c-.66-.65-1.5-1.4-2.5-2.22s-2.09-1.78-3.39-2.69l-2-1.47-2.21-1.44c-1.48-1-3.18-1.89-4.87-2.87s-3.53-1.82-5.44-2.55-3.83-1.49-5.78-2.16-3.91-1.25-5.91-1.62-3.92-.74-5.8-1-3.7-.45-5.43-.45-3.37-.12-4.88 0l-2.15.08-1.87.17-1.63.15c-.51.05-1.06.16-1.51.21l-2.91.44a5 5 0 1 1-.75-10z" fill="#fff"/><g opacity=".6" style="mix-blend-mode:multiply"><path d="M211.06 65.64S195.83 52.28 195 51.77s-2.37 10.56-2.37 10.56l7.54 4.13z" fill="url(#m)" style="mix-blend-mode:multiply"/><g style="mix-blend-mode:multiply"><path d="M189.69 119.17C172.1 109.65 167.9 89.8 168 86.65s5.95-2 9.11-5.58c-5.7-5.41-12.15-27.25-9.11-27.66l-7.62-1.66v10.58c0 .39 10 16.24 10 16.24v3.59L162.13 84l-2.75 5.27 9.88 16.53 4.4 6.35-10.43 5.53-8.32 3.2-24.7-3.2-31-1.79-2.93 3.41 9 6.85 14.44 7.93 6 3.62-21.15 10.91-11.33 7-28.2 17.1L64 178.4s5.37 3.13 4.19 3.76C62 185.41 70.69 193 92.34 190 38 211.51 15.52 173.93 18.61 148.31c-7.39 1.94-8.25 8.74-9.4 13.15-1.05 4 4 11.55 4.92 12.85-.46-.64-3.25-8.1-6.4-8.5-5.64-.72-3.51 16.13-3.51 16.13L13 195l13.55 10.4 17.18 4 19.69-.14 19.83-5.55L103 192l12.38-13-7.38-3.58L93.31 178l-11.86 1.85s-10.61.23-12.5-1.15 20-11.37 24.93-11 5.87 6.71 5.45 7.76c-.56 1.39 16.9-3.82 16.9-3.82 4.71 4.66 7.17 6.75 10.32 7.93l-1.38 4.27-7.68 5.82s-7.12 21.77-7 22.69 1.82 2.68 5.3 0c-2-4.9 23.19-24.91 28.7-24.91l-13.81-6.83c1.24.21 2.63.39 4.27.59-26-14-3.3-35.53-3.3-35.53s3.7-3.71 3.77-4.68 1.78-3.33.1-4-18.12-9.89-18.12-13.09 37.82 5.9 37.82 7.66c0 2.25 4.64-3.64 7.33.31 12.57 1.25 26.29-6.24 27.72-8.77s-3.06.41-.58-3.93z" fill="url(#n)"/><path d="M274.82 136.82c-1.33-.81-52-.93-56.08-.3L199.47 155l4 .69 69.84-13.73s2.84-4.32 1.51-5.14z" fill="url(#o)"/></g></g><g fill="#231d1e"><path d="M226.63 146.66a86.19 86.19 0 0 1-21.9-2.85c-20.48-5.38-37.8-17.74-48.76-34.82s-14.3-37-9.27-55.84C155 21.86 185.33 0 220.39 0a86.4 86.4 0 0 1 21.9 2.85c42.35 11.13 68.39 51.79 58 90.65-8.29 31.3-38.61 53.16-73.66 53.16zM220.39 5c-32.77 0-61.08 20.33-68.84 49.44-4.66 17.5-1.59 35.92 8.65 51.87S186.75 133.93 206 139a81.22 81.22 0 0 0 20.62 2.69c32.77 0 61.08-20.33 68.83-49.45C305.11 56 280.68 18.09 241 7.67A81.21 81.21 0 0 0 220.39 5z"/><path d="M268.95 108.67a2.52 2.52 0 0 1-1.89-.85 2.48 2.48 0 0 1 .23-3.52c15.28-13.34 20-28.55 17.48-34-.07 0-3.35-3-31.46 3a2.5 2.5 0 1 1-1.06-4.88c29.77-6.37 35.44-3.71 37.07-.26 3.78 8-2.3 25.5-18.72 39.83a2.52 2.52 0 0 1-1.65.68z"/><path d="M228.37 134.88q-1.46 0-3-.06a2.5 2.5 0 1 1 .21-5 63.63 63.63 0 0 0 44.17-15.4l-3.15-7.26a2.49 2.49 0 0 1 1.31-3.28 2.52 2.52 0 0 1 3.3 1.3l3.85 8.86a2.47 2.47 0 0 1-.48 2.7c-.68.78-17.51 18.14-46.21 18.14zM188.45 123.84a2.54 2.54 0 0 1-1.24-.33c-20.76-11.72-28.57-28.09-29.8-35.12-.37-2.1-.17-3.44.63-4.37a2.51 2.51 0 0 1 1.48-.83c5.1-.89 10.06-2 14.72-3.28a2.52 2.52 0 0 1 3.1 1.74 2.49 2.49 0 0 1-1.75 3.07 147.1 147.1 0 0 1-13.22 3c.94 5 7.82 20.41 27.33 31.43a2.49 2.49 0 0 1 .94 3.4 2.52 2.52 0 0 1-2.19 1.29zM252.78 73.42a2.51 2.51 0 0 1-2.23-1.34c-1.28-1.76-13.45-8.95-30.38-5.89a58.52 58.52 0 0 0-13.7 4.12 2.53 2.53 0 0 1-3.33-1.25 2.49 2.49 0 0 1 1.25-3.3 63.54 63.54 0 0 1 14.88-4.48c18.84-3.41 33.81 4.55 35.77 8.55a2.49 2.49 0 0 1-1.16 3.33 2.51 2.51 0 0 1-1.1.26z"/><path d="M174.91 84.81a2.52 2.52 0 0 1-1-.2C162.7 79.79 157 62.48 157.15 54.54c0-3.32 1-5.39 3-6.15 3-1.18 9.5 1.41 29 10.28 6.56 3 14.72 6.7 16.35 6.88A2.48 2.48 0 0 1 208 68a2.55 2.55 0 0 1-2.48 2.58c-2 .06-6.44-1.84-18.49-7.33-8-3.62-21-9.54-24.72-10.07-.31 1.43-.16 5.31 1.57 10.6 2.66 8.11 7.16 14.2 12 16.29a2.49 2.49 0 0 1-1 4.79z"/><path d="M224.08 65.64c-3.75 0-11.47-4.14-21.91-10-2.66-1.48-5.59-3.12-7.18-3.89-.64 1.75-.7 6.47 0 10.78a2.51 2.51 0 0 1-5 .78c-.68-4.27-1.73-14.46 3.25-16.7 1.6-.72 2.62-.21 11.38 4.69 5.44 3 16.71 9.33 19.38 9.33h.14a2.5 2.5 0 0 1 .09 5zM229.89 76c.29 3-2.34 5.79-5.86 6.11s-6.62-1.88-6.9-4.93 2.34-5.79 5.86-6.11 6.61 1.93 6.9 4.93zM250.17 95.21a70.09 70.09 0 0 1 9.56-4.3c1.64-.58 3.28-1.17 4.94-1.67.83-.27 1.69-.49 2.53-.72s1.77-.41 2.66-.61a1.56 1.56 0 0 1 1.87 1.16 1.53 1.53 0 0 1 0 .35 4 4 0 0 1-.35 1.7c-.16.38-.32.74-.49 1.08-.35.68-.74 1.29-1.13 1.91a32.51 32.51 0 0 1-2.55 3.48 30.06 30.06 0 0 1-3 3.13 12 12 0 0 1-3.59 2.42 12.2 12.2 0 0 0 1.31-1.64c.39-.58.78-1.14 1.13-1.73.74-1.17 1.41-2.37 2.1-3.55s1.32-2.4 1.94-3.59c.31-.6.59-1.21.84-1.79.13-.29.24-.58.33-.84s.12-.6.11-.33l1.94 1.5c-1.55.35-3.22.8-4.88 1.21-.83.22-1.67.41-2.51.61s-1.68.41-2.52.59c-1.7.36-3.39.71-5.12 1a52.67 52.67 0 0 1-5.12.63zM269.31 69c0 2.7 7 15.08 15.29 15.7 1.55-2.23 2.89-14.56 1.78-15.7s-17.07 0-17.07 0zM71.42 182.32c-7.22 0-9.16-1.84-9.83-4-1-3.32-2.92-9.5 64.17-44.24l2.33 4.43c-54 27.95-60.77 36.33-61.56 38.29 4.06 2.31 28.87-2 50.25-7.64l1.3 4.82c-.13 0-13 3.43-26 5.87-9.61 1.75-16.16 2.47-20.66 2.47zM156.81 124l-2.23-4.47c20.08-9.88 20.42-9.88 21-9.88l1.07 4.75c-.07.03-8.01 3.78-19.84 9.6z"/><path d="M149.75 188.58c-17.35 0-28.22-7.81-34.41-14.64-8.78-9.69-12.39-22.22-11.52-27.19l5 .86c-.48 2.77 1.87 13.69 10.3 23 5.91 6.52 16.65 14 34.35 12.87l.33 5c-1.42.06-2.8.1-4.05.1zM140.65 196a39.9 39.9 0 0 1-22.29-6.44l2.77-4.17c6.58 4.31 14.31 6.14 23 5.47l.39 5q-1.97.14-3.87.14zM104.82 175.42c-6.37-10.21-8.42-21.11-7.79-25.25l5 .73c-.43 2.86 1.26 12.53 7.1 21.89z"/><path d="M111 217.75a3.39 3.39 0 0 1-1.36-.26 5.1 5.1 0 0 1-2.92-3.76c-1.9-8.95 14.5-33.89 17.11-36.74l3.72 3.36c-4.27 4.65-17.69 28.09-15.95 32.38 5.85-1.44 32.89-22.8 54.73-40.05 24.93-19.69 48.47-38.29 58.11-42.58l2.06 4.56c-9.05 4-33.45 23.3-57 41.93-39.29 31.04-52.94 41.16-58.5 41.16zM135.36 141.94c-2.94 0-35.07-13.68-40.65-20.16a4.68 4.68 0 0 1-1.36-3.8c.49-3.09 4.35-4.19 14.72-4.19a264.44 264.44 0 0 1 31.69 2.32c19.81 2.61 20.15 4.82 20.43 6.59a11.67 11.67 0 0 1-2.92 9.76c-6.27 7.29-20.57 9.48-21.91 9.48zm-36.12-22.61c5.64 5.06 31.9 16.41 36.29 17.6 2.08-.23 13.61-2.45 18.09-7.91a6.76 6.76 0 0 0 1.68-4.75c-4.7-2.2-30.39-5.48-47.23-5.48a50.64 50.64 0 0 0-8.83.54z"/><path d="M139.19 149.88A23.17 23.17 0 0 1 130 148c-4.87-2.09-8.47-5.79-9.16-9.41l4.94-.93c.32 1.67 2.56 4.19 6.21 5.76 2.88 1.24 10.61 3.45 20.24-2.64 8.48-5.36 10.3-11.37 10.63-14.47.3-2.85-.47-4.59-.79-4.89.05.05-.58-1.45-.25-1.4l1.54-3.31c2 .29 3.62 2.26 4.28 5.28 1.32 6.07-1.22 15.74-12.71 23a29.63 29.63 0 0 1-15.74 4.89zM190.05 159.77a2.5 2.5 0 0 1-.18-5c32-2.27 80.78-11.81 85.49-17.79-2.18-.76-9.59-2.24-34.64-3.3a2.5 2.5 0 1 1 .21-5c37.76 1.6 38.67 4.08 39.47 6.27a4.74 4.74 0 0 1-.58 4.31c-7.14 10.93-73.33 19.32-89.6 20.48zM168.84 167.13c-1.84 0-19.68-8.54-20.35-11-.32-1.14-.48-1.72 9.44-10 2.16-1.79 9.32-7.69 10.59-8.1a2.37 2.37 0 0 1 .61-.09c2.58 0 17.28 8.44 18.86 10.13a2 2 0 0 1 .59 1.51c-.18 2.36-17.08 17.38-19.65 17.46zm-16.41-11.67c3.46 2.22 14 7.74 16.3 8.31 2.34-1.14 13.16-10.65 16-14-3-2.14-12.91-7.52-15.39-8.35a218.72 218.72 0 0 0-16.92 14.04z"/><path d="M182.28 156.18a1.66 1.66 0 0 1-.82-.22L163 145.61a1.66 1.66 0 0 1-.64-2.27 1.68 1.68 0 0 1 2.28-.63l18.47 10.35a1.66 1.66 0 0 1-.83 3.11z"/><ellipse cx="170.16" cy="143.85" rx=".89" ry=".88"/><ellipse cx="172.78" cy="145.33" rx=".89" ry=".88"/><path d="M49.81 212.32a89.19 89.19 0 0 1-9.7-.52c-20.54-2.23-38-20.48-39.95-35.3-.91-7.07 2-12.43 8-14.71.33-.13.66-.23 1-.33l1.39 4.8-.6.2c-3.83 1.45-5.46 4.62-4.85 9.42 1.45 11.21 16 28.85 35.51 31 34.6 3.76 65.46-14.34 76.93-33.28l4.31 2.57c-11.13 18.42-39.38 36.15-72.04 36.15z"/><path d="M14.41 176.34a2.52 2.52 0 0 1-2-1c-6-7.84-7-17.1-2.6-24.77 3.33-5.84 9.08-9.21 14.63-8.62 4.64.5 5.87 4.95 7.05 9.24 2.41 8.74 5.73 20.72 34.82 19.17a2.5 2.5 0 1 1 .27 5c-33.16 1.73-37.4-13.63-39.94-22.83-1-3.71-1.63-5.48-2.75-5.6-3.51-.39-7.4 2.08-9.7 6.12-3.35 5.88-2.51 13.09 2.23 19.29a2.49 2.49 0 0 1-.48 3.5 2.52 2.52 0 0 1-1.53.5zM225.52 133.29l-23.3 22.84h-8.75l32.05-22.84zM119.74 186.84c3.2 2.52 23.38 2.65 27.18 1.27s-22.1-8.28-22.1-8.28zM107 176c1 1.25 7.59 5.9 7.59 5.9l3.92-6.59-2.24-2.63zM200.73 65.4c.56-.83 8.73-3.33 13.9-3.05s-9.5 5.13-9.5 5.13zM188.73 123.83c-5.9.31-18.71-6.75-18.37-9.2s5.22-1.82 5.22-1.82z"/></g></g></svg>