<svg xmlns="http://www.w3.org/2000/svg" viewBox="0 0 599.92 776.84"><title>Fichier 4</title><g opacity=".55" fill="#e42936" data-name="Accueil"><path d="M.22 336a335.5 335.5 0 0 0 47.89 117.34 71.12 71.12 0 0 0-1.87 74.78l-20.41 77.44H1.55L0 776.84h216.88a12.81 12.81 0 0 0 12.33-16.26L193 631.17h.19a12.81 12.81 0 1 0 0-25.62h-24.31l-12.41-47.42a337.6 337.6 0 0 0 412.71-50.43c61.61-61.6 28.29-197.81-79.23-323.85a12.81 12.81 0 0 0-19.49 16.62c97 113.75 131.68 238 80.61 289.12-27 27-75.05 30.88-135.2 10.82-63.15-21-130.92-65.63-190.82-125.53S120.55 247.2 99.51 184.06C79.45 123.9 83.3 75.88 110.33 48.85c51.08-51.08 175.37-16.43 289.12 80.6A12.81 12.81 0 0 0 416.07 110C290 2.46 153.85-30.87 92.23 30.72A335.27 335.27 0 0 0 .39 201.59zm92 171.74a344 344 0 0 0 30.43 27 45.16 45.16 0 0 1-57.82-58 339.79 339.79 0 0 0 27.39 30.96zm-25.35 42.63a70.84 70.84 0 0 0 17.67 8.89v46.29H52.32zm-38.54 80.8h138L200 751.22H0m110.15-145.66v-42.62a71.26 71.26 0 0 0 20.12-3.75l12.13 46.37zm220.55-24.69a309.59 309.59 0 0 1-220.37-91.28c-102.05-102-118.38-257.84-49-377.1-.35 23.9 4.24 50.71 13.9 79.66C97.49 259 144.27 330.33 206.93 393s134 109.44 200.84 131.73c27.94 9.3 53.87 13.93 77.13 13.93h2.75a309.82 309.82 0 0 1-156.95 42.21zm0 0"/><path d="M321.64 260.16a12.81 12.81 0 1 0 18.11 18.11l143.47-143.45a38.48 38.48 0 1 0-18.12-18.11zm169-169a12.81 12.81 0 1 1 0 18.12 12.81 12.81 0 0 1 0-18.11zm0 0"/></g></svg>